<svg width="60" height="32" viewBox="0 0 60 32" fill="none" xmlns="http://www.w3.org/2000/svg">
<path d="M45 16H45.025M30 16H30.025M32.5 16C32.5 17.3807 31.3807 18.5 30 18.5C28.6193 18.5 27.5 17.3807 27.5 16C27.5 14.6193 28.6193 13.5 30 13.5C31.3807 13.5 32.5 14.6193 32.5 16ZM47.5 16C47.5 17.3807 46.3807 18.5 45 18.5C43.6193 18.5 42.5 17.3807 42.5 16C42.5 14.6193 43.6193 13.5 45 13.5C46.3807 13.5 47.5 14.6193 47.5 16Z" stroke="white" stroke-opacity="0.1" stroke-width="5" stroke-linecap="round" stroke-linejoin="round"/>
<path d="M15 16H15.025M17.5 16C17.5 17.3807 16.3807 18.5 15 18.5C13.6193 18.5 12.5 17.3807 12.5 16C12.5 14.6193 13.6193 13.5 15 13.5C16.3807 13.5 17.5 14.6193 17.5 16Z" stroke="white" stroke-opacity="0.6" stroke-width="5" stroke-linecap="round" stroke-linejoin="round"/>
</svg>
