<svg width="350" height="70" viewBox="0 0 350 70" fill="none" xmlns="http://www.w3.org/2000/svg">
<g clip-path="url(#clip0_1_971)">
<path d="M122.962 45.8441H121.001C120.984 46.1181 120.951 46.3873 120.951 46.6565C120.945 51.9161 120.943 57.1749 120.94 62.4345C120.94 62.6135 120.984 62.8174 120.909 62.9638C120.831 63.1151 120.634 63.3142 120.488 63.3156C117.205 63.3398 113.922 63.3426 110.639 63.3419C110.205 63.3419 109.866 62.977 109.865 62.5496C109.865 57.2741 109.865 51.9979 109.863 46.7224C109.863 46.4477 109.839 46.1736 109.823 45.8621H107.86C107.842 46.1175 107.807 46.3866 107.806 46.6558C107.8 49.7986 107.801 52.9408 107.792 56.0836C107.792 56.3597 107.807 56.6116 107.539 56.869C107.361 57.0403 107.445 57.4524 107.396 57.7549C107.361 57.9721 107.481 58.2662 107.095 58.3342C107.051 58.3419 107.035 58.4993 107.008 58.5875C106.945 58.7921 107.092 59.1126 106.677 59.1286C106.653 59.1293 106.614 59.207 106.613 59.2486C106.605 59.7655 106.235 60.027 105.858 60.324C105.524 60.5862 105.291 60.9609 104.987 61.2613C104.772 61.4736 104.516 61.6498 104.27 61.8323C103.945 62.0744 103.617 62.3131 103.28 62.5392C103.205 62.5892 103.087 62.5767 102.989 62.5968C102.777 62.6405 102.493 62.5441 102.428 62.8826C102.419 62.9298 102.226 62.9638 102.116 62.9708C101.741 62.995 101.362 62.9839 100.99 63.0277C100.788 63.0512 100.599 63.1643 100.4 63.2261C100.244 63.2746 100.083 63.3392 99.924 63.3392C97 63.3447 94.0753 63.3468 91.1513 63.3308C90.9453 63.3294 90.7466 63.1498 90.5333 63.106C90.2225 63.0429 89.9008 63.0332 89.5849 62.9923C89.3083 62.9562 88.9538 63.1047 88.8199 62.7016C88.8053 62.6586 88.6692 62.6329 88.5891 62.6322C87.9893 62.6287 87.5278 62.3998 87.2134 61.9051C87.1872 61.8649 87.094 61.8545 87.03 61.8461C86.5561 61.7816 86.3152 61.4451 86.0407 61.1253C85.8668 60.922 85.612 60.7805 85.3958 60.6091C85.3485 60.5717 85.2779 60.5266 85.2735 60.4801C85.2277 59.9785 84.7342 59.7447 84.5434 59.3798C84.3651 59.0384 84.1154 58.6894 84.0208 58.2988C83.9429 57.9776 84.1133 57.5822 83.6656 57.3733C83.5979 57.3414 83.6103 57.1298 83.6066 57.0008C83.5935 56.545 83.5819 56.0892 83.5819 55.6333C83.5804 43.1932 83.5812 30.753 83.5819 18.3128C83.5819 17.9222 83.5812 17.5309 83.6066 17.141C83.6234 16.8864 83.5193 16.5853 83.9022 16.4375C83.9852 16.4056 83.9691 16.1441 83.9997 15.9887C84.0507 15.7285 83.8862 15.3733 84.3425 15.2886C84.368 15.2838 84.3942 15.2061 84.3935 15.1631C84.3797 14.64 84.7443 14.3479 85.1199 14.0586C85.1651 14.0239 85.1876 13.9469 85.1942 13.8865C85.2459 13.4293 85.5843 13.1906 85.9432 12.9555C86.1099 12.8458 86.2431 12.6911 86.401 12.5676C86.864 12.2076 87.3262 11.8454 87.8015 11.5013C87.9005 11.4298 88.0556 11.4173 88.1873 11.4C88.477 11.3618 88.8133 11.4569 88.9596 11.0739C88.9814 11.0163 89.2078 11.0295 89.3396 11.0101C89.8207 10.9407 90.3645 11.1384 90.7626 10.6903C90.8172 10.6292 90.9912 10.6563 91.1106 10.6563C94.052 10.6535 96.9934 10.6493 99.9341 10.6604C100.113 10.6604 100.287 10.8082 100.473 10.8457C100.8 10.9116 101.138 10.9241 101.462 10.9983C101.833 11.0829 102.341 10.7805 102.552 11.3348C102.556 11.3466 102.579 11.3535 102.595 11.3591C103.034 11.5061 103.483 11.6324 103.908 11.8086C104.135 11.9023 104.443 12.0466 104.501 12.2298C104.603 12.5489 104.859 12.5211 105.067 12.6224C105.151 12.6634 105.254 12.7272 105.281 12.8028C105.433 13.2191 105.838 13.4418 106.072 13.7672C106.262 14.0322 106.503 14.3222 106.667 14.6323C106.855 14.9875 106.827 15.5113 107.294 15.7514C107.38 15.7958 107.371 16.0143 107.396 16.1545C107.467 16.5638 107.266 17.0384 107.747 17.3519C107.819 17.3991 107.793 17.5989 107.793 17.728C107.793 21.5382 107.79 25.3485 107.785 29.158C107.785 29.4105 107.822 29.6714 107.487 29.8199C107.404 29.8566 107.433 30.1189 107.406 30.2771C107.359 30.5532 107.528 30.9084 107.084 31.0465C107.034 31.0624 107.014 31.222 107.014 31.3157C107.009 31.8589 106.729 32.2481 106.281 32.5527C106.235 32.5839 106.205 32.6588 106.2 32.7164C106.155 33.1923 105.799 33.4303 105.442 33.696C105.095 33.9548 104.8 34.2795 104.487 34.5792C104.442 34.6222 104.437 34.7193 104.389 34.7408C103.983 34.9205 103.571 35.0843 103.165 35.2626C103.06 35.3091 102.967 35.384 102.876 35.4547C102.828 35.4922 102.804 35.581 102.756 35.5921C102.115 35.7378 101.477 35.9633 100.828 35.9931C99.4843 36.0549 98.1355 36.0119 96.7219 36.0119V35.2112C96.7219 30.6517 96.7445 26.0929 96.703 21.5334C96.695 20.637 97.1004 19.6379 96.2357 18.8533C94.6831 18.693 94.6598 18.7124 94.6598 20.1944C94.6598 31.3968 94.6598 42.6 94.6598 53.8025C94.6598 55.2851 94.6853 55.3059 96.1906 55.1491C96.3376 55.002 96.457 54.8959 96.5589 54.7758C96.6237 54.6995 96.7045 54.6031 96.7045 54.515C96.7066 51.6989 96.7001 48.8822 96.6928 46.0661C96.6928 46.0044 96.6702 45.9426 96.6484 45.8275H95.1133V37.9891H109.866C109.866 37.7574 109.866 37.5687 109.866 37.38C109.867 31.0132 109.865 24.6463 109.876 18.2802C109.876 17.8709 109.719 17.4109 110.182 17.0779C110.275 17.0106 110.216 16.7657 110.255 16.6096C110.341 16.2703 110.069 15.8111 110.619 15.6161C110.665 15.6001 110.643 15.4336 110.668 15.3407C110.718 15.161 110.599 14.8835 110.961 14.8731C110.995 14.8724 111.054 14.778 111.056 14.7253C111.075 14.2313 111.387 13.942 111.792 13.6902C111.936 13.6 112.086 13.4314 112.118 13.2774C112.236 12.721 112.832 12.6252 113.154 12.2651C113.372 12.0216 113.855 11.9897 114.065 11.7434C114.386 11.3667 114.994 11.5589 115.24 11.1044C115.275 11.0406 115.451 11.0323 115.564 11.0254C115.922 11.0032 116.281 10.9941 116.639 10.9782C116.759 10.9726 116.916 11.0073 116.992 10.9483C117.668 10.419 118.46 10.675 119.196 10.6653C121.607 10.6334 124.018 10.6486 126.429 10.6674C126.668 10.6694 126.901 10.8457 127.146 10.8963C127.44 10.9574 127.746 10.9657 128.046 11.0045C128.339 11.0427 128.702 10.8928 128.867 11.298C128.891 11.3591 129.083 11.3854 129.196 11.3827C129.761 11.3667 130.13 11.6546 130.437 12.0605C130.471 12.1049 130.545 12.1423 130.603 12.1458C131.113 12.175 131.349 12.5343 131.628 12.868C131.799 13.0727 132.055 13.2128 132.267 13.3884C132.324 13.4349 132.396 13.5001 132.401 13.5618C132.449 14.0322 132.801 14.2944 133.134 14.5727C133.169 14.6018 133.208 14.6441 133.214 14.6844C133.266 14.9834 133.449 15.2262 133.572 15.4815C133.867 16.0955 134.053 16.8143 134.057 17.4914C134.094 24.6234 134.089 31.7548 134.091 38.8869C134.093 46.7349 134.091 54.583 134.091 62.4317C134.091 63.0431 133.767 63.3489 133.12 63.3489C130.076 63.3496 127.032 63.3503 123.988 63.353C123.332 63.353 123.023 63.07 123.022 62.4497C123.018 57.2068 123.015 51.9639 123.009 46.721C123.009 46.447 122.979 46.173 122.96 45.8455L122.962 45.8441ZM123.012 37.9558V37.3876C123.012 31.6563 123.012 25.925 123.012 20.1937C123.012 18.7138 122.983 18.6909 121.436 18.8519C120.572 19.6386 120.975 20.637 120.968 21.5334C120.93 26.8089 120.949 32.0844 120.949 37.3592C120.949 37.55 120.949 37.7408 120.949 37.9551H123.013L123.012 37.9558Z" fill="white"/>
<path d="M161.752 10.6527C161.876 10.6527 162.061 10.6527 162.247 10.6527C171.634 10.6485 181.022 10.6444 190.41 10.6416C192.666 10.6416 194.923 10.6589 197.178 10.643C197.566 10.6402 197.709 10.7762 197.708 11.1085C197.702 13.5992 197.692 16.0899 197.681 18.5805C197.681 18.6416 197.655 18.7026 197.631 18.806H174.711V19.4734C174.711 33.7854 174.711 48.0967 174.711 62.4087C174.711 63.034 174.391 63.3467 173.75 63.3467C170.689 63.3467 167.628 63.3467 164.567 63.3467C163.941 63.3467 163.627 63.0391 163.627 62.424C163.627 56.3999 163.627 50.3751 163.626 44.351C163.626 44.0097 163.618 43.6669 163.589 43.327C163.582 43.2409 163.48 43.1625 163.423 43.0807C163.365 43.1625 163.263 43.2416 163.258 43.3263C163.229 43.7321 163.241 44.1401 163.208 44.5459C163.18 44.8963 163.325 45.2959 162.902 45.5568C162.827 45.6033 162.843 45.801 162.838 45.9293C162.819 46.4497 162.814 46.9707 162.792 47.4917C162.78 47.7706 162.857 48.0697 162.52 48.2681C162.432 48.3194 162.434 48.5373 162.429 48.6802C162.407 49.2657 162.414 49.8527 162.376 50.4375C162.356 50.7497 162.519 51.1382 162.054 51.3249C161.998 51.3471 162.006 51.5365 162.003 51.6489C161.99 52.1373 162.004 52.6264 161.968 53.1134C161.943 53.4471 162.087 53.8426 161.651 54.0722C161.59 54.1048 161.605 54.2852 161.601 54.3976C161.585 54.886 161.592 55.3752 161.558 55.8622C161.535 56.1973 161.668 56.5872 161.241 56.8189C161.179 56.8529 161.195 57.0319 161.191 57.1443C161.175 57.6327 161.182 58.1218 161.148 58.6089C161.125 58.9433 161.257 59.3318 160.832 59.5642C160.77 59.5982 160.785 59.7765 160.781 59.8889C160.766 60.3607 160.776 60.8338 160.739 61.3042C160.712 61.6525 160.838 62.0285 160.435 62.3192C160.295 62.4198 160.4 62.7917 160.318 63.0144C160.269 63.1504 160.077 63.3335 159.949 63.3342C157.333 63.3529 154.716 63.3495 152.1 63.346C151.81 63.346 151.364 62.8784 151.346 62.5599C151.322 62.1048 151.335 61.6476 151.3 61.1939C151.271 60.813 151.429 60.3829 150.99 60.088C150.915 60.0374 150.934 59.8424 150.93 59.7134C150.909 59.1112 150.903 58.509 150.875 57.9075C150.861 57.6133 150.953 57.2831 150.579 57.0839C150.506 57.0451 150.516 56.8446 150.511 56.7183C150.493 56.2139 150.498 55.7089 150.466 55.2052C150.447 54.8999 150.568 54.5419 150.163 54.3393C150.101 54.3081 150.108 54.1291 150.105 54.0174C150.088 53.5457 150.103 53.0711 150.054 52.6028C150.032 52.3898 149.881 52.1914 149.801 51.9819C149.757 51.8646 149.718 51.7384 149.713 51.6149C149.689 50.9808 149.686 50.3453 149.656 49.7111C149.641 49.3892 149.75 49.0291 149.361 48.7953C149.285 48.7496 149.295 48.5539 149.289 48.4263C149.265 47.89 149.274 47.3509 149.22 46.8174C149.197 46.5884 149.041 46.3734 148.962 46.1465C148.914 46.0126 148.877 45.8697 148.871 45.7295C148.848 45.1606 148.844 44.5903 148.82 44.0208C148.814 43.8522 148.768 43.685 148.74 43.5178C148.675 43.5136 148.609 43.5094 148.543 43.5053C148.507 43.7349 148.439 43.9652 148.438 44.1949C148.423 47.0442 148.414 49.8929 148.413 52.7423C148.411 56.0474 148.419 59.3526 148.421 62.6578C148.421 63.133 148.005 63.2197 147.665 63.3245C147.448 63.3911 147.19 63.3356 146.951 63.3363C143.976 63.3405 141.001 63.346 138.025 63.3495C137.353 63.3502 137.342 63.3488 137.34 62.698C137.337 60.7769 137.347 58.8559 137.347 56.9348C137.344 41.8249 137.341 26.7151 137.338 11.6053C137.338 10.9725 137.668 10.6562 138.328 10.6562C142.158 10.6562 145.988 10.668 149.818 10.6423C150.343 10.6388 150.499 10.7984 150.518 11.2591C150.527 11.4658 150.693 11.6649 150.771 11.8724C150.822 12.0063 150.866 12.1485 150.875 12.2893C150.899 12.6952 150.895 13.1031 150.92 13.509C150.936 13.7671 150.832 14.0682 151.206 14.2187C151.275 14.2465 151.281 14.4553 151.287 14.5816C151.309 15.0367 151.294 15.4953 151.344 15.9469C151.366 16.1426 151.52 16.3223 151.6 16.5145C151.648 16.6296 151.69 16.7538 151.697 16.8759C151.722 17.2984 151.699 17.7258 151.756 18.1428C151.79 18.3877 151.948 18.6159 152.039 18.8553C152.078 18.9579 152.104 19.0696 152.11 19.1786C152.129 19.5525 152.135 19.9272 152.148 20.3011C152.151 20.4149 152.113 20.5779 152.176 20.6348C152.777 21.1767 152.445 21.8808 152.557 22.5045C152.603 22.7599 152.479 23.0617 152.844 23.2178C152.916 23.249 152.923 23.4543 152.929 23.5806C152.951 24.0198 152.934 24.4617 152.985 24.8974C153.01 25.1083 153.161 25.304 153.242 25.5114C153.288 25.6279 153.331 25.7514 153.339 25.8742C153.363 26.2968 153.365 26.72 153.388 27.1425C153.403 27.4054 153.32 27.7037 153.676 27.8612C153.739 27.889 153.745 28.0652 153.751 28.1741C153.769 28.5314 153.748 28.8936 153.798 29.2467C153.828 29.459 153.97 29.656 154.049 29.8642C154.099 29.9988 154.147 30.141 154.156 30.2818C154.181 30.6877 154.179 31.0956 154.203 31.5015C154.218 31.7603 154.121 32.0572 154.485 32.214C154.557 32.2452 154.564 32.4506 154.571 32.5769C154.593 33.016 154.575 33.458 154.625 33.8936C154.65 34.1046 154.801 34.3009 154.882 34.5076C154.928 34.6242 154.973 34.7484 154.98 34.8712C155.005 35.2937 155.005 35.7176 155.03 36.1394C155.045 36.401 154.955 36.7014 155.316 36.8554C155.379 36.8825 155.387 37.0594 155.393 37.1683C155.412 37.5582 155.406 37.9502 155.438 38.3394C155.463 38.6447 155.383 38.9562 155.738 39.2136C155.896 39.328 155.809 39.7353 155.859 40.0052C155.879 40.1085 155.972 40.1994 156.032 40.2958C156.091 40.1994 156.193 40.1064 156.201 40.0058C156.233 39.6492 156.203 39.2864 156.256 38.934C156.29 38.7057 156.437 38.4948 156.519 38.2707C156.568 38.1354 156.609 37.9925 156.618 37.851C156.642 37.4611 156.642 37.0698 156.66 36.6799C156.673 36.3996 156.663 36.1477 156.923 35.8945C157.092 35.7308 157.009 35.3402 157.056 35.0536C157.119 34.6624 156.92 34.2086 157.379 33.9034C157.456 33.8527 157.437 33.6578 157.443 33.5294C157.464 33.025 157.469 32.5207 157.493 32.0163C157.507 31.7422 157.4 31.4335 157.782 31.2566C157.868 31.217 157.838 30.9555 157.867 30.7973C157.964 30.2527 157.736 29.6866 158.198 29.153C158.416 28.9019 158.252 28.3656 158.296 27.9618C158.336 27.6024 158.155 27.1772 158.62 26.9191C158.692 26.8795 158.673 26.6756 158.678 26.5472C158.697 26.0754 158.692 25.6023 158.734 25.1326C158.748 24.9806 158.882 24.8405 158.952 24.6906C159.004 24.5803 159.071 24.4652 159.079 24.3486C159.108 23.9268 159.106 23.5029 159.132 23.0804C159.149 22.8008 159.067 22.4893 159.43 22.311C159.501 22.2763 159.48 22.0737 159.503 21.9488C159.615 21.3591 159.35 20.7333 159.85 20.1637C160.05 19.9355 159.893 19.4373 159.939 19.0669C159.987 18.6777 159.776 18.2218 160.269 17.9263C160.356 17.8743 160.315 17.6196 160.323 17.458C160.345 16.9862 160.196 16.4243 160.414 16.0628C160.834 15.3662 160.503 14.5531 160.829 13.9648C161.254 13.1954 161.022 12.4309 161.208 11.6906C161.29 11.3611 161.53 11.0669 161.752 10.6576V10.6527Z" fill="white"/>
<path d="M210.508 43.1008C210.482 43.2833 210.433 43.4651 210.434 43.6475C210.439 45.2592 210.209 46.9173 210.536 48.4693C210.824 49.8423 210.746 51.1792 210.817 52.5307C210.889 53.8954 210.851 55.2656 210.881 56.633C210.884 56.8058 211.015 56.9743 211.079 57.1485C211.127 57.281 211.194 57.4184 211.196 57.5543C211.222 59.2805 211.232 61.0059 211.258 62.732C211.264 63.1865 211.12 63.3655 210.581 63.3599C207.452 63.3308 204.322 63.346 201.193 63.3453C200.477 63.3453 200.18 63.0657 200.18 62.3914C200.18 48.3708 200.18 34.3502 200.18 20.3296C200.18 17.3824 200.18 14.4359 200.18 11.4887C200.18 11.0045 200.547 10.6513 201.058 10.652C203.845 10.6541 206.633 10.6583 209.42 10.6652C210.006 10.6666 210.388 11.026 210.407 11.5761C210.418 11.8856 210.402 12.1978 210.446 12.5023C210.471 12.6702 210.6 12.8229 210.674 12.9859C210.725 13.0983 210.79 13.2149 210.799 13.3328C210.83 13.7061 210.814 14.0828 210.862 14.4533C210.883 14.6191 211.018 14.7703 211.092 14.9327C211.143 15.0451 211.202 15.1616 211.212 15.2802C211.239 15.6042 211.232 15.931 211.255 16.2557C211.274 16.5138 211.176 16.8121 211.541 16.9661C211.614 16.9967 211.62 17.2027 211.627 17.329C211.651 17.7355 211.63 18.1462 211.686 18.5473C211.718 18.7783 211.868 18.9927 211.957 19.2181C211.997 19.3187 212.034 19.427 212.039 19.5331C212.06 19.9071 212.066 20.2817 212.082 20.6557C212.087 20.7694 212.059 20.938 212.124 20.9866C212.666 21.3924 212.395 21.9648 212.483 22.4609C212.53 22.7301 212.397 23.0429 212.78 23.2185C212.866 23.258 212.838 23.5189 212.868 23.6764C212.971 24.2189 212.725 24.7941 213.204 25.3185C213.407 25.5413 213.257 26.0429 213.304 26.4133C213.352 26.7887 213.229 27.1626 213.609 27.5275C213.825 27.7357 213.681 28.2741 213.719 28.6619C213.746 28.9463 213.601 29.2897 214.023 29.4583C214.092 29.4861 214.096 29.6963 214.101 29.8233C214.12 30.2132 214.113 30.6052 214.146 30.9944C214.155 31.1068 214.267 31.2108 214.333 31.3191C214.387 31.2171 214.487 31.1151 214.488 31.0131C214.493 29.9384 214.724 28.7965 214.417 27.8064C214.008 26.4841 214.203 25.1909 214.126 23.8887C214.048 22.5566 214.098 21.219 214.061 19.8842C214.054 19.6365 213.888 19.3951 213.818 19.1453C213.771 18.9767 213.743 18.7977 213.74 18.6229C213.712 16.4576 213.69 14.2916 213.665 12.1263C213.663 11.9806 213.703 11.7614 213.622 11.701C213.079 11.2979 213.608 11.0426 213.759 10.7519C213.797 10.6784 213.992 10.6486 214.115 10.6486C217.398 10.6458 220.682 10.6534 223.965 10.6465C224.261 10.6465 224.361 10.77 224.381 11.0121C224.394 11.1738 224.407 11.3361 224.407 11.4984C224.409 28.4988 224.409 45.4999 224.408 62.5003C224.408 62.6307 224.408 62.7612 224.401 62.8909C224.385 63.2156 224.251 63.3585 223.863 63.3564C221.041 63.3384 218.219 63.3481 215.397 63.3453C214.865 63.3453 214.536 63.0387 214.507 62.5565C214.488 62.2526 214.609 61.9016 214.199 61.7094C214.136 61.6803 214.153 61.4992 214.131 61.3882C214.016 60.7985 214.294 60.1616 213.778 59.6038C213.601 59.4123 213.735 58.9731 213.69 58.6512C213.633 58.2301 213.807 57.7847 213.366 57.3989C213.187 57.2415 213.326 56.7745 213.278 56.454C213.229 56.1141 213.429 55.7068 212.963 55.4571C212.868 55.4064 212.922 55.1206 212.888 54.9464C212.788 54.4365 213.057 53.8794 212.553 53.4055C212.381 53.2439 212.511 52.8096 212.464 52.505C212.393 52.0527 212.565 51.5899 212.138 51.1487C211.916 50.9197 212.07 50.3675 212.038 49.9623C212.017 49.7056 212.128 49.4017 211.752 49.2519C211.683 49.2241 211.675 49.0181 211.668 48.8925C211.646 48.5026 211.654 48.1106 211.614 47.7221C211.6 47.5861 211.482 47.4605 211.419 47.3273C211.36 47.2018 211.279 47.0734 211.267 46.9416C211.236 46.6016 211.267 46.2547 211.215 45.919C211.183 45.7074 211.04 45.5124 210.961 45.305C210.91 45.1704 210.862 45.0281 210.854 44.8873C210.827 44.4488 210.827 44.009 210.801 43.5698C210.792 43.4103 210.743 43.2528 210.712 43.0946C210.643 43.0974 210.574 43.1001 210.505 43.1029L210.508 43.1008Z" fill="white"/>
<path d="M345.5 36.997C345.5 45.4153 345.5 53.8337 345.5 62.252C345.5 62.3984 345.503 62.5455 345.499 62.6918C345.48 63.3204 345.454 63.3447 344.796 63.3454C342.06 63.3454 339.323 63.3454 336.587 63.3454C335.911 63.3454 335.633 63.0637 335.584 62.4199C335.557 62.0584 335.732 61.6276 335.252 61.3702C335.175 61.3286 335.222 61.0927 335.195 60.9491C335.096 60.4072 335.358 59.8272 334.85 59.3131C334.654 59.1154 334.799 58.6228 334.765 58.2669C334.736 57.9679 334.886 57.6106 334.463 57.4177C334.393 57.3858 334.41 57.1777 334.387 57.0514C334.28 56.4763 334.539 55.8623 334.04 55.3156C333.854 55.1116 333.992 54.6537 333.949 54.3151C333.898 53.9079 334.049 53.4909 333.632 53.108C333.434 52.9262 333.577 52.4225 333.535 52.068C333.498 51.7558 333.66 51.3874 333.227 51.1668C333.133 51.1189 333.184 50.831 333.147 50.6575C333.039 50.1497 333.36 49.5565 332.798 49.1312C332.723 49.0743 332.752 48.8828 332.746 48.7538C332.726 48.2987 332.864 47.7665 332.663 47.4037C332.27 46.6954 332.542 45.8677 332.22 45.262C331.876 44.6154 331.999 44.0035 331.875 43.3853C331.853 43.2771 331.771 43.1807 331.716 43.078C331.65 43.1862 331.526 43.2944 331.526 43.4027C331.521 44.8679 331.282 46.3873 331.613 47.7825C331.929 49.1104 331.812 50.3974 331.892 51.6996C331.972 53.015 331.918 54.3366 331.956 55.6548C331.964 55.9185 332.128 56.1766 332.206 56.4416C332.247 56.5796 332.273 56.726 332.275 56.8689C332.3 58.8067 332.322 60.7437 332.337 62.6814C332.342 63.3419 332.328 63.3468 331.665 63.3468C328.518 63.3468 325.372 63.3468 322.226 63.3468C321.618 63.3468 321.269 63.0124 321.269 62.431C321.269 45.4805 321.269 28.5294 321.269 11.579C321.269 10.9858 321.608 10.6535 322.215 10.6535C324.985 10.6528 327.756 10.6528 330.526 10.6535C331.136 10.6535 331.461 10.9747 331.506 11.545C331.538 11.9515 331.414 12.3602 331.814 12.7487C332.022 12.9499 331.876 13.4668 331.921 13.8379C331.97 14.2313 331.766 14.6961 332.264 14.982C332.325 15.0167 332.285 15.1991 332.307 15.3101C332.424 15.8818 332.103 16.5277 332.675 17.0342C332.793 17.1375 332.692 17.4449 332.73 17.6516C332.812 18.0984 332.601 18.566 333.053 18.9983C333.269 19.2036 333.122 19.7468 333.152 20.1361C333.173 20.4087 333.059 20.7223 333.429 20.9013C333.506 20.9388 333.517 21.1372 333.523 21.2635C333.548 21.686 333.528 22.1126 333.582 22.531C333.609 22.7433 333.762 22.9403 333.848 23.1478C333.89 23.2484 333.929 23.3559 333.935 23.4627C333.957 23.8526 333.944 24.246 333.99 24.6324C334.01 24.7976 334.147 24.9481 334.221 25.1091C334.272 25.2215 334.333 25.3394 334.341 25.4574C334.368 25.8306 334.347 26.208 334.395 26.5785C334.418 26.7589 334.561 26.9233 334.634 27.1009C334.689 27.232 334.746 27.3708 334.754 27.5089C334.783 27.9307 334.76 28.358 334.815 28.7764C334.842 28.9894 335 29.185 335.084 29.3932C335.131 29.5083 335.169 29.6332 335.177 29.7553C335.201 30.1778 335.203 30.6017 335.233 31.0236C335.239 31.1158 335.327 31.2032 335.377 31.2927C335.441 31.1984 335.558 31.1054 335.559 31.0104C335.572 29.9364 335.581 28.8617 335.559 27.7878C335.55 27.3541 335.703 26.8775 335.265 26.5119C335.183 26.4439 335.226 26.2316 335.225 26.0859C335.198 23.7416 335.179 21.3967 335.136 19.0524C335.133 18.8345 334.98 18.6208 334.909 18.4016C334.865 18.2663 334.82 18.1248 334.818 17.9853C334.79 15.7548 334.769 13.5243 334.743 11.2938C334.738 10.863 334.847 10.6368 335.404 10.6417C338.55 10.6701 341.697 10.6687 344.844 10.6424C345.365 10.6382 345.497 10.8429 345.498 11.2578C345.498 11.4041 345.499 11.5505 345.499 11.6976C345.499 20.1326 345.499 28.5669 345.499 37.0019L345.5 36.997Z" fill="white"/>
<path d="M240.795 45.0107H238.736V45.5969C238.736 51.2311 238.736 56.8646 238.736 62.4988C238.736 63.0531 238.441 63.3445 237.862 63.3452C234.63 63.3473 231.397 63.339 228.166 63.3549C227.765 63.357 227.652 63.2023 227.655 62.8748C227.655 62.7611 227.652 62.6466 227.652 62.5328C227.652 47.9267 227.652 33.3212 227.653 18.715C227.653 18.2918 227.651 17.8679 227.671 17.4454C227.683 17.2054 227.58 16.9022 227.963 16.8064C227.986 16.8009 228.017 16.7503 228.012 16.7267C227.884 16.1252 228.251 15.6381 228.501 15.1622C228.69 14.8028 228.747 14.3303 229.185 14.0972C229.248 14.0639 229.233 13.9182 229.286 13.8475C229.512 13.554 229.719 13.239 229.991 12.9893C230.423 12.5924 230.9 12.2414 231.358 11.8709C231.383 11.8515 231.402 11.8202 231.43 11.8105C231.863 11.6607 232.384 11.6114 232.709 11.345C233.262 10.8906 233.99 11.2111 234.451 10.928C235.113 10.5215 235.757 10.6707 236.402 10.6637C239.018 10.6346 241.635 10.6485 244.251 10.6665C244.475 10.6679 244.691 10.8406 244.922 10.8871C245.232 10.9496 245.554 10.9586 245.867 11.0071C246.137 11.0488 246.511 10.8753 246.61 11.3082C246.615 11.3284 246.664 11.3429 246.695 11.354C247.128 11.5011 247.58 11.6121 247.989 11.805C248.337 11.9687 248.642 12.2199 248.956 12.446C249.193 12.6174 249.417 12.8061 249.639 12.9955C249.705 13.0517 249.741 13.1377 249.796 13.2064C250.044 13.5186 250.294 13.8294 250.544 14.1403C250.563 14.1638 250.603 14.1763 250.613 14.2013C250.773 14.5954 250.858 15.0408 251.107 15.3738C251.424 15.7977 251.305 16.3943 251.557 16.6878C251.99 17.1901 251.863 17.6834 251.863 18.1732C251.879 32.991 251.877 47.8087 251.877 62.6258C251.877 63.3452 251.872 63.3452 251.115 63.3452C248.002 63.3452 244.89 63.3452 241.778 63.3452C241.062 63.3452 240.795 63.0878 240.795 62.4072C240.795 56.8223 240.795 51.2374 240.795 45.6517V45.01L240.795 45.0107ZM240.772 36.8165C240.781 36.6284 240.795 36.4689 240.795 36.31C240.795 30.8569 240.795 25.4038 240.795 19.9514C240.795 19.805 240.844 19.6267 240.775 19.5184C240.618 19.2701 240.445 18.9259 240.201 18.8503C239.344 18.5853 238.738 19.0474 238.737 19.8875C238.735 25.3732 238.736 30.8583 238.735 36.344C238.735 36.5001 238.735 36.6562 238.735 36.8171H240.771L240.772 36.8165Z" fill="white"/>
<path d="M318.366 36.9461C318.366 43.5724 318.367 50.198 318.363 56.8243C318.363 57.1295 318.444 57.4611 318.066 57.6783C317.97 57.7338 318.004 57.9822 317.962 58.1383C317.904 58.3575 318.086 58.6981 317.645 58.7342C317.633 58.7349 317.611 58.7592 317.613 58.7682C317.711 59.2331 317.264 59.4759 317.117 59.8429C317.002 60.1301 316.777 60.3847 316.567 60.6282C316.366 60.862 316.136 61.0778 315.894 61.2742C315.649 61.4733 315.374 61.6384 315.113 61.8202C314.818 62.0269 314.524 62.2357 314.231 62.4473C314.194 62.4744 314.178 62.5431 314.141 62.5528C313.57 62.704 313.002 62.8712 312.422 62.9878C312.009 63.071 311.545 62.9136 311.197 63.2993C311.119 63.386 310.87 63.3423 310.701 63.3423C307.863 63.3451 305.024 63.3506 302.186 63.3347C301.944 63.3333 301.708 63.1578 301.459 63.1092C301.146 63.0481 300.82 63.0523 300.505 62.9954C300.129 62.9274 299.636 63.18 299.409 62.6499C299.39 62.6062 299.216 62.6298 299.118 62.6076C298.927 62.5646 298.639 62.6728 298.626 62.3315C298.625 62.3003 298.561 62.2461 298.525 62.2448C297.968 62.226 297.667 61.902 297.349 61.5003C297.075 61.1534 296.525 60.9883 296.296 60.6282C296.001 60.162 295.348 59.9109 295.366 59.2615C294.667 59.0235 295.249 58.1723 294.617 57.8476C294.473 57.7733 294.586 57.2912 294.526 57.0067C294.475 56.7604 294.342 56.5308 294.255 56.2907C294.217 56.1874 294.186 56.0764 294.182 55.9674C294.17 55.5935 294.168 55.2188 294.168 54.8442C294.168 42.9757 294.164 31.1065 294.18 19.238C294.18 18.6441 293.969 18.0135 294.478 17.446C294.654 17.2496 294.518 16.8139 294.566 16.4934C294.592 16.3297 294.708 16.1771 294.79 16.0223C294.82 15.9668 294.911 15.912 294.903 15.8718C294.774 15.2793 295.32 14.9061 295.433 14.3864C295.483 14.1554 295.723 13.9528 295.901 13.7572C296.119 13.5164 296.353 13.2875 296.596 13.0689C296.799 12.8858 297.025 12.7255 297.239 12.5534C297.442 12.3897 297.639 12.219 297.845 12.0588C297.968 11.963 298.102 11.8805 298.233 11.7938C298.377 11.6987 298.524 11.6064 298.667 11.5107C298.692 11.494 298.702 11.4489 298.727 11.4413C299.236 11.2942 299.742 11.1284 300.26 11.0139C300.737 10.9085 301.285 11.1263 301.698 10.6927C301.772 10.6143 301.993 10.6532 302.147 10.6532C305.002 10.6518 307.858 10.6462 310.713 10.6629C310.954 10.6643 311.191 10.8245 311.437 10.8891C311.629 10.9397 311.833 10.948 312.029 10.9876C312.524 11.0875 313.135 10.785 313.494 11.3678C313.505 11.3858 313.558 11.3844 313.591 11.3858C314.332 11.4066 314.815 11.9471 315.403 12.253C315.798 12.4584 316.022 12.9475 316.349 13.2868C316.538 13.4817 316.788 13.6226 316.995 13.8043C317.059 13.8605 317.073 13.9695 317.107 14.0555C317.182 14.2428 317.071 14.546 317.452 14.5488C317.48 14.5488 317.518 14.6799 317.532 14.7534C317.577 14.9907 317.489 15.2994 317.893 15.3348C317.901 15.3355 317.911 15.3619 317.914 15.3771C318.064 15.9571 318.338 16.5357 318.344 17.1171C318.39 21.5289 318.387 25.9406 318.395 30.3524C318.399 32.5503 318.395 34.7482 318.395 36.9461C318.385 36.9461 318.374 36.9461 318.363 36.9461H318.366ZM307.269 18.8467H305.77C304.854 19.7577 305.27 20.8531 305.267 21.8522C305.236 32.1902 305.244 42.5282 305.256 52.8662C305.257 53.6495 304.978 54.5119 305.775 55.1377H307.27V18.8467H307.269Z" fill="white"/>
<path d="M260.507 18.7991C260.254 18.7991 260.07 18.7991 259.886 18.7991C258.262 18.7991 256.637 18.7991 255.013 18.7991C254.132 18.7991 253.934 18.609 253.934 17.7619C253.934 15.6618 253.934 13.5617 253.934 11.4617C253.934 10.9989 254.292 10.6555 254.791 10.6548C262.416 10.6527 270.041 10.6555 277.666 10.6465C278.004 10.6465 278.134 10.7644 278.149 11.0565C278.155 11.1703 278.161 11.2841 278.161 11.3978C278.161 13.6117 278.163 15.8256 278.159 18.0394C278.159 18.2781 278.121 18.5167 278.097 18.7998H271.588C271.588 19.0537 271.588 19.2584 271.588 19.4637C271.588 33.773 271.588 48.0822 271.588 62.3914C271.588 63.0255 271.257 63.3426 270.596 63.3426C267.553 63.3426 264.51 63.3426 261.467 63.3426C260.838 63.3426 260.507 63.029 260.507 62.4393C260.507 48.1467 260.507 33.8534 260.507 19.5609V18.7998V18.7991Z" fill="white"/>
<path d="M187.893 55.1947H197.652C197.676 55.473 197.714 55.7109 197.715 55.9496C197.719 58.1634 197.718 60.378 197.717 62.5918C197.717 63.3453 197.712 63.3453 196.931 63.3453C190.588 63.3453 184.245 63.3453 177.902 63.3453C176.991 63.3453 176.777 63.1371 176.776 62.2581C176.773 55.0622 176.766 47.867 176.768 40.6712C176.769 35.2992 176.78 29.9273 176.786 24.556C176.787 23.1907 176.786 21.8253 176.786 20.4058C177.069 20.3857 177.335 20.351 177.6 20.3503C179.275 20.3455 180.951 20.3566 182.626 20.3399C182.922 20.3371 183.217 20.2275 183.474 20.1748C183.875 20.2379 184.263 20.3427 184.653 20.3517C185.693 20.3767 186.734 20.36 187.844 20.36V32.9029C188.162 32.9168 188.414 32.9376 188.666 32.9383C190.666 32.9411 192.667 32.9383 194.667 32.9404C195.326 32.9411 195.641 33.2373 195.641 33.8416C195.641 35.9743 195.641 38.1069 195.641 40.2396C195.641 40.7983 195.341 41.0779 194.741 41.0784C192.723 41.0784 190.706 41.0784 188.689 41.0784C188.435 41.0784 188.181 41.0784 187.891 41.0784V55.1954L187.893 55.1947Z" fill="white"/>
<path d="M291.3 37.0157C291.3 45.4805 291.3 53.9453 291.3 62.4102C291.3 63.0318 290.977 63.3426 290.331 63.3426C287.288 63.3426 284.246 63.3426 281.202 63.3426C280.569 63.3426 280.222 63.0082 280.222 62.3997C280.222 45.4701 280.222 28.5405 280.222 11.6109C280.222 10.9594 280.546 10.6542 281.239 10.6542C284.384 10.6542 287.53 10.666 290.675 10.6417C291.176 10.6375 291.305 10.8276 291.298 11.2314C291.295 11.3778 291.298 11.5242 291.298 11.6705C291.298 20.1194 291.298 28.5676 291.298 37.0164L291.3 37.0157Z" fill="white"/>
<path d="M123.011 37.9572H120.947C120.947 37.7429 120.947 37.5521 120.947 37.3613C120.947 32.0858 120.927 26.8103 120.966 21.5355C120.972 20.6391 120.57 19.6401 121.434 18.854C122.981 18.6924 123.01 18.7153 123.01 20.1958C123.01 25.9271 123.01 31.6584 123.01 37.3897V37.9579L123.011 37.9572Z" fill="black"/>
<path d="M240.772 36.8164H238.736C238.736 36.6555 238.736 36.4994 238.736 36.3433C238.736 30.8576 238.736 25.3725 238.738 19.8868C238.738 19.0467 239.345 18.5846 240.202 18.8496C240.446 18.9252 240.619 19.2694 240.776 19.5177C240.845 19.6267 240.796 19.8043 240.796 19.9506C240.796 25.4038 240.796 30.8569 240.796 36.3093C240.796 36.4689 240.782 36.6277 240.773 36.8158L240.772 36.8164Z" fill="black"/>
<path d="M307.268 18.8472V55.1381H305.774C304.976 54.5123 305.256 53.6499 305.255 52.8667C305.242 42.5287 305.234 32.1906 305.265 21.8526C305.268 20.8543 304.853 19.7581 305.768 18.8472H307.267H307.268Z" fill="black"/>
<path d="M57.4098 55.2736C57.3735 55.4351 57.3835 55.5529 57.3272 55.613C57.0075 55.9566 56.6791 56.2935 56.34 56.6189C56.0566 56.8909 55.7475 57.138 55.4623 57.4082C55.3741 57.4919 55.3353 57.6231 55.2552 57.7172C55.162 57.8264 55.0575 57.9303 54.9412 58.0153C54.7197 58.1767 54.4701 58.3048 54.2618 58.4791C53.902 58.7796 53.5617 59.1026 53.2189 59.4213C53.1182 59.5148 52.9912 59.6131 52.953 59.7321C52.8185 60.1534 52.2092 59.9428 52.0872 60.3659C52.0803 60.3908 52.0152 60.4151 51.9783 60.4139C51.1175 60.3866 50.3549 60.9548 49.466 60.7909C49.2595 60.7532 48.9986 60.7253 48.8623 61.0107C48.8303 61.078 48.6239 61.0847 48.4969 61.089C47.8801 61.1078 47.262 61.1035 46.6464 61.1333C46.2992 61.1497 45.9126 61.027 45.6323 61.3792C45.5773 61.4484 45.3814 61.4217 45.2507 61.4223C43.9576 61.4253 42.6639 61.4338 41.3714 61.415C41.1643 61.4119 40.9604 61.2766 40.752 61.214C40.6294 61.177 40.4999 61.1448 40.3729 61.1412C39.7123 61.1217 39.0504 61.1248 38.3898 61.0938C38.1039 61.0805 37.8474 61.0598 37.5552 60.8668C37.2731 60.6804 36.7664 60.8103 36.3579 60.8115C36.3291 60.8115 36.2665 60.9093 36.279 60.9378C36.3022 60.9912 36.3629 61.0562 36.4173 61.0659C36.5749 61.0944 36.7445 61.075 36.8965 61.1175C37.031 61.1551 37.1499 61.2474 37.2719 61.3215C37.3044 61.3415 37.3294 61.4138 37.3475 61.4101C37.8774 61.3093 38.2628 61.6991 38.7357 61.7871C38.9991 61.8363 39.3213 61.6918 39.4858 62.0609C39.5177 62.1326 39.7861 62.1022 39.9438 62.1265C40.2954 62.1799 40.7057 62.0093 40.9754 62.4003C41.0192 62.4634 41.1962 62.4495 41.3126 62.4531C41.7386 62.4683 42.1646 62.4683 42.59 62.4907C42.8665 62.5053 43.1737 62.4161 43.3739 62.7354C43.4202 62.8095 43.6479 62.79 43.7918 62.7913C44.8941 62.801 45.9964 62.7998 47.0981 62.818C47.2451 62.8204 47.3909 62.9127 47.5366 62.9631C47.4071 63.0341 47.2776 63.1051 47.1481 63.1761C47.0449 63.2332 46.941 63.2903 46.8378 63.348C46.7496 63.3971 46.6683 63.4645 46.5738 63.4937C46.3861 63.5513 46.1065 63.4354 46.0715 63.765C46.069 63.7869 46.0027 63.8142 45.9639 63.8191C45.6892 63.8525 45.4684 63.9526 45.2163 64.0965C44.774 64.3484 44.2059 64.3885 43.6961 64.536C43.5397 64.5816 43.4077 64.7024 43.2538 64.7613C43.1118 64.8159 42.956 64.8384 42.8052 64.8669C42.4687 64.93 42.1008 64.7819 41.8118 65.1589C41.7048 65.2985 41.2782 65.1862 41.0067 65.2354C40.814 65.2706 40.6382 65.3884 40.4511 65.4612C40.361 65.4965 40.2647 65.5299 40.1696 65.5353C39.8324 65.5535 39.4915 65.5371 39.158 65.5784C38.9797 65.6003 38.8158 65.7199 38.64 65.7824C38.5205 65.8255 38.3923 65.8729 38.2678 65.8729C35.5934 65.8765 32.9196 65.8759 30.2452 65.868C30.1269 65.868 30.0062 65.8024 29.8911 65.7569C29.7535 65.7023 29.6252 65.5972 29.4857 65.5833C29.136 65.5487 28.7813 65.5614 28.4297 65.5402C28.1795 65.525 27.8936 65.5997 27.7409 65.287C27.7128 65.2293 27.5288 65.2463 27.4181 65.2227C27.0346 65.1401 26.5592 65.3787 26.2783 64.9094C26.2482 64.8596 26.0831 64.8918 25.9817 64.876C25.7059 64.8329 25.3662 64.978 25.1991 64.5931C25.171 64.5275 24.9257 64.5555 24.7825 64.5306C24.561 64.4923 24.2626 64.6198 24.18 64.2635C24.1719 64.2282 24.0218 64.2258 23.9385 64.2052C23.6558 64.1354 23.2742 64.3084 23.1271 63.8858C23.1134 63.8458 22.9276 63.8792 22.8362 63.8433C22.698 63.7881 22.5729 63.7019 22.4427 63.6278C22.3852 63.595 22.3314 63.538 22.2713 63.5319C22.0192 63.5064 21.8409 63.4457 21.6276 63.2429C21.3717 62.9995 20.8631 63.0207 20.5672 62.7985C20.2651 62.5709 19.8065 62.6122 19.6151 62.2339C19.6032 62.2103 19.5719 62.1726 19.5594 62.1757C19.1071 62.2989 18.9275 61.8072 18.5372 61.7531C18.3195 61.7228 18.0123 61.5716 17.9466 61.4016C17.8271 61.0926 17.5888 61.1509 17.3804 61.0683C17.2065 60.9991 17.0495 60.8716 16.9106 60.7441C16.7354 60.5839 16.5878 60.3944 16.4226 60.2239C16.3776 60.1771 16.3138 60.1292 16.2519 60.1188C15.8546 60.0527 15.6294 59.7861 15.3948 59.5002C15.2497 59.3229 15.0176 59.2143 14.833 59.0655C14.7073 58.9641 14.6009 58.8403 14.4783 58.7359C14.0911 58.4056 13.6976 58.082 13.3116 57.7506C13.0113 57.4925 12.7147 57.2309 12.4263 56.9607C12.35 56.8891 12.3206 56.7725 12.2518 56.6906C12.0529 56.455 11.8483 56.2237 11.6381 55.9973C11.4936 55.8413 11.3234 55.7065 11.1895 55.5432C11.0388 55.3598 10.9531 55.0423 10.7716 54.9865C10.4764 54.8948 10.527 54.689 10.4395 54.5178C10.3469 54.3381 10.2318 54.162 10.0935 54.0133C9.93273 53.8403 9.73254 53.7025 9.55612 53.5428C9.50857 53.4997 9.45915 53.436 9.4529 53.3777C9.40848 52.9697 9.13259 52.7232 8.82355 52.4962C8.81229 52.4877 8.79852 52.478 8.79352 52.4658C8.6415 52.1246 8.50825 51.7737 8.33433 51.4435C8.1698 51.1314 7.9646 50.8394 7.77317 50.5407C7.75253 50.5092 7.69059 50.4982 7.67746 50.4667C7.5392 50.1218 7.49916 49.6787 7.24955 49.4516C6.92424 49.156 7.1138 48.643 6.68088 48.4475C6.64272 48.4305 6.61582 48.3582 6.61144 48.3091C6.5883 48.0535 6.63897 47.7675 6.28864 47.6674C6.35745 47.1817 6.0434 46.8071 5.89952 46.3815C5.81694 46.1375 5.99773 45.7951 5.59047 45.6749C5.55481 45.6646 5.5667 45.5158 5.54856 45.4333C5.48537 45.1419 5.63051 44.8201 5.26391 44.57C5.1194 44.4716 5.20823 44.06 5.17758 43.7923C5.15506 43.5968 5.24452 43.3606 4.94799 43.2544C4.88543 43.2319 4.86228 43.0547 4.8554 42.9466C4.8335 42.5915 4.85352 42.2315 4.80472 41.8806C4.7747 41.6638 4.64457 41.461 4.57013 41.2486C4.53384 41.1448 4.50319 41.0324 4.50256 40.9244C4.49881 38.303 4.49881 35.6821 4.50506 33.0607C4.50506 32.946 4.57075 32.8294 4.61579 32.7171C4.67523 32.5684 4.7847 32.4281 4.80222 32.2763C4.83976 31.9515 4.82099 31.6219 4.84601 31.2953C4.86416 31.0573 4.76781 30.7805 5.10438 30.6323C5.17633 30.6008 5.1513 30.3719 5.17946 30.2359C5.25077 29.8917 5.01555 29.457 5.4935 29.2269C5.52228 29.213 5.50852 29.1201 5.51915 29.0642C5.57859 28.7437 5.41718 28.3491 5.84321 28.1511C5.71496 27.5859 6.24172 27.1895 6.2561 26.6535C6.25986 26.5096 6.40625 26.3687 6.49008 26.2285C6.50259 26.2072 6.54575 26.2 6.55389 26.1793C6.68839 25.8151 6.79724 25.4399 6.9574 25.0865C7.11067 24.7472 7.31524 24.4297 7.49916 24.1037C7.51918 24.0678 7.56673 24.0448 7.58174 24.0083C7.72813 23.6514 7.77067 23.1663 8.03905 22.9666C8.37249 22.7183 8.18481 22.2156 8.62774 22.0978C8.66214 22.0887 8.69405 22.0068 8.6953 21.9576C8.70531 21.5296 9.02561 21.3098 9.31714 21.0688C9.35593 21.0366 9.39346 20.9808 9.39597 20.934C9.42224 20.4987 9.75568 20.2935 10.0453 20.027C10.258 19.8316 10.34 19.5074 10.5014 19.2536C10.6215 19.0648 10.7641 18.8857 10.918 18.7206C11.229 18.3873 11.5574 18.0692 11.8727 17.7401C12.2149 17.3831 12.5527 17.0219 12.8893 16.6601C13.1664 16.3614 13.4198 16.0396 13.7195 15.7646C13.9353 15.5667 14.2199 15.4417 14.4539 15.2607C14.6685 15.0944 14.8568 14.8971 15.0551 14.7113C15.1815 14.5929 15.2922 14.4545 15.4317 14.3544C15.6588 14.1911 15.9047 14.0508 16.1424 13.9009C16.3632 13.7618 16.6191 13.6556 16.798 13.4771C17.0639 13.2112 17.2728 12.9186 17.7045 12.8554C17.8959 12.8275 18.1731 12.6594 18.2175 12.5033C18.3401 12.0717 18.9851 12.3637 19.037 11.892C19.0389 11.8774 19.1759 11.8847 19.2466 11.8683C19.4136 11.8295 19.657 11.8968 19.6545 11.6054C19.6545 11.586 19.6851 11.5563 19.7076 11.5478C20.0605 11.4142 20.5134 11.3723 20.7424 11.1307C21.0433 10.8126 21.5769 10.9911 21.7721 10.5637C21.7909 10.523 21.8954 10.5139 21.9629 10.5011C22.1744 10.4617 22.4559 10.5515 22.4997 10.2091C22.5028 10.1861 22.6304 10.1763 22.7005 10.163C22.9082 10.1217 23.1709 10.2207 23.266 9.90012C23.2848 9.83759 23.5307 9.8382 23.6727 9.81148C23.8948 9.76899 24.1838 9.88919 24.2807 9.54072C24.2951 9.48851 24.5204 9.49337 24.6473 9.46848C24.8938 9.41991 25.2323 9.57958 25.3292 9.18618C25.333 9.17039 25.3793 9.15947 25.4068 9.154C26.0161 9.02955 26.6242 8.89902 27.2354 8.78489C27.465 8.74239 27.7272 8.83528 27.8767 8.54509C27.913 8.47467 28.1169 8.4692 28.2451 8.46192C28.6117 8.44188 28.9821 8.45949 29.3449 8.41699C29.5395 8.39392 29.7203 8.27311 29.9105 8.20572C30.0162 8.16869 30.1288 8.12741 30.2383 8.12741C32.9421 8.12377 35.6453 8.12316 38.3491 8.13348C38.4711 8.13348 38.5906 8.24154 38.7145 8.29315C38.829 8.3405 38.9453 8.40667 39.0648 8.41578C39.3864 8.44067 39.7136 8.41699 40.0326 8.45767C40.209 8.48013 40.3704 8.59973 40.5437 8.66104C40.6776 8.7084 40.819 8.73875 40.9591 8.7685C41.4133 8.86503 41.9563 8.59973 42.3198 9.09633C42.3629 9.15522 42.545 9.11151 42.6607 9.12851C42.911 9.16432 43.23 9.02409 43.3539 9.40109C43.3702 9.45087 43.5691 9.44298 43.6829 9.46423C43.9432 9.51219 44.2829 9.36041 44.4136 9.75078C44.428 9.79388 44.6038 9.78113 44.702 9.8042C44.9585 9.8643 45.317 9.6931 45.4259 10.1065C45.434 10.1381 45.5891 10.1284 45.673 10.1478C45.8506 10.1885 46.114 10.0841 46.1365 10.3992C46.1378 10.4198 46.1703 10.4477 46.1941 10.4562C46.5626 10.5855 46.9448 10.6869 47.2989 10.846C47.6373 10.9984 47.9476 11.2096 48.2692 11.3972C48.2923 11.4106 48.3005 11.4506 48.3236 11.4597C48.6777 11.6012 49.0424 11.7208 49.3853 11.8841C49.7006 12.0347 49.9952 12.2271 50.2942 12.4086C50.5657 12.5725 50.8385 12.7359 51.0969 12.9186C51.3265 13.0807 51.5323 13.2731 51.7569 13.4431C51.9677 13.6022 52.1842 13.7552 52.4062 13.899C52.6459 14.0545 52.9149 14.1734 53.1338 14.3507C53.4985 14.6452 53.8364 14.9712 54.1786 15.2911C54.273 15.3797 54.3287 15.5078 54.425 15.5934C54.9881 16.09 55.7407 16.3912 56.0466 17.1561C56.1254 17.3534 56.3775 17.4833 56.5433 17.6509C56.7178 17.8275 56.8836 18.0121 57.0538 18.193C57.2152 18.3654 57.3735 18.5403 57.5399 18.7078C57.7088 18.8778 57.9146 19.0205 58.051 19.2117C58.2193 19.4479 58.3112 19.735 58.4764 19.9736C58.6021 20.1557 58.7973 20.2917 58.9487 20.4587C59.0294 20.5479 59.0832 20.6596 59.1483 20.7616C59.3579 21.0937 59.6219 21.4057 59.7589 21.7639C59.8765 22.0717 60.208 22.2077 60.2637 22.5853C60.3106 22.9047 60.6291 23.187 60.8293 23.485C60.843 23.5063 60.8831 23.5136 60.8912 23.5348C61.0282 23.8851 61.1608 24.2378 61.2985 24.5881C61.3316 24.6719 61.3779 24.7508 61.4223 24.8297C61.4886 24.9469 61.5574 25.0623 61.6275 25.177C61.7045 25.3039 61.7827 25.4296 61.8627 25.5546C61.8909 25.5983 61.9484 25.6354 61.9547 25.6803C61.9916 25.9468 62.0898 26.1611 62.2387 26.4076C62.4983 26.8368 62.5409 27.3874 62.6935 27.8816C62.7405 28.0334 62.8649 28.1615 62.9256 28.3114C62.9819 28.4492 63.0057 28.6004 63.0339 28.7473C63.0964 29.0745 62.9481 29.4333 63.3366 29.7096C63.473 29.8061 63.3617 30.2001 63.413 30.449C63.4543 30.6493 63.5737 30.8333 63.6513 31.0276C63.6864 31.1156 63.7189 31.2091 63.7245 31.302C63.7427 31.6146 63.7233 31.9315 63.7671 32.2399C63.7933 32.4275 63.9159 32.6017 63.9823 32.7857C64.0248 32.9029 64.0692 33.0279 64.0692 33.1493C64.0736 35.7137 64.0748 38.2781 64.0623 40.8418C64.0617 40.9875 63.9378 41.1314 63.8765 41.2783C63.8352 41.3779 63.7789 41.4793 63.7721 41.5825C63.7483 41.923 63.7614 42.2673 63.7226 42.606C63.7057 42.7511 63.5838 42.8823 63.5318 43.0267C63.4761 43.1803 63.4455 43.3424 63.4067 43.5015C63.326 43.8317 63.5543 44.2434 63.1102 44.4874C63.0407 44.5257 63.0583 44.7272 63.0507 44.8541C63.0132 45.4594 62.8424 45.6433 62.2168 45.7441C62.1474 45.755 62.0266 45.7684 62.0204 45.7993C61.9409 46.1587 61.6375 46.0221 61.4186 46.0665C61.2215 46.1059 60.9538 46.0118 60.9043 46.3281C60.9012 46.3475 60.8587 46.3791 60.8424 46.3755C60.2706 46.2413 59.864 46.7075 59.3416 46.7652C59.1652 46.7846 59.0006 46.9127 58.8324 46.9941C58.7842 47.0178 58.7435 47.0748 58.6966 47.0779C58.417 47.0955 58.2155 47.1932 57.9678 47.3638C57.5993 47.6176 57.0701 47.6479 56.614 47.7876C56.497 47.8234 56.3963 47.909 56.2906 47.9758C56.2562 47.9976 56.2261 48.0638 56.203 48.0601C55.6781 47.9745 55.2915 48.3297 54.8548 48.4906C54.4501 48.6393 54.0328 48.7577 53.6449 48.9155C53.4547 48.9926 53.1701 49.054 53.0525 49.1784C52.7635 49.4838 52.2567 49.3454 52.0371 49.7205C52.024 49.743 51.9959 49.7643 51.9702 49.7721C51.5292 49.9106 51.085 50.0405 50.6471 50.1886C50.5332 50.2275 50.44 50.324 50.3368 50.3926C50.2824 50.429 50.2285 50.4849 50.1691 50.4934C49.9264 50.5274 49.7437 50.5644 49.5266 50.7708C49.2614 51.0222 48.7866 51.0707 48.3968 51.1909C48.196 51.2528 47.8995 51.1266 47.8557 51.4714C47.8544 51.4817 47.8382 51.4945 47.8263 51.4981C47.4196 51.6268 47.0099 51.7476 46.6064 51.8867C46.4356 51.9455 46.2779 52.0415 46.1165 52.1234C46.0946 52.135 46.0871 52.1781 46.0658 52.1853C45.6686 52.3122 45.2726 52.4452 44.871 52.5575C44.6551 52.6176 44.3505 52.4731 44.2723 52.8246C44.2685 52.8422 44.226 52.858 44.1991 52.8641C43.6204 52.9952 43.043 53.1288 42.4624 53.252C42.2366 53.3 41.9613 53.1895 41.8337 53.5112C41.8074 53.5774 41.5684 53.5628 41.4277 53.5871C41.068 53.649 40.6469 53.4621 40.3667 53.8791C40.3085 53.9659 40.0307 53.901 39.8587 53.9307C39.4383 54.0036 38.9422 53.7711 38.61 54.2288C38.5718 54.2816 38.4148 54.2574 38.3122 54.2604C37.813 54.275 37.3119 54.2671 36.8152 54.309C36.6056 54.3266 36.4079 54.454 36.2008 54.5214C36.0939 54.5566 35.9788 54.5888 35.8674 54.5894C34.0306 54.5925 32.1933 54.5961 30.3565 54.5803C30.1951 54.5791 30.0375 54.4407 29.8736 54.3776C29.7703 54.3381 29.659 54.3017 29.5495 54.2962C29.1829 54.278 28.8138 54.2889 28.4485 54.2598C28.182 54.2391 27.9036 54.3375 27.6784 54.0121C27.582 53.8731 27.1547 53.9568 26.8795 53.9241C26.6668 53.8986 26.3921 54.0078 26.292 53.6903C26.2795 53.6515 26.1688 53.6314 26.1 53.6211C25.7465 53.5665 25.4237 53.5477 25.0734 53.3334C24.6267 53.0602 24.0218 53.0322 23.4881 52.8871C23.3805 52.858 23.2842 52.7821 23.1891 52.7184C23.1591 52.6983 23.144 52.6133 23.1334 52.6152C22.6874 52.7002 22.449 52.2667 22.0568 52.2096C21.9454 52.1932 21.8491 52.084 21.7452 52.019C21.6795 51.9777 21.6157 51.9255 21.5431 51.9037C21.3448 51.8448 21.0621 51.9583 21.0045 51.6068C20.997 51.5625 20.6323 51.5679 20.4333 51.5691C20.4177 51.5691 20.3633 51.7604 20.3933 51.7847C20.5804 51.9352 20.7818 52.0706 20.9876 52.1963C21.2404 52.3505 21.612 52.4336 21.7302 52.6516C21.8484 52.8677 21.9973 52.8459 22.1437 52.926C22.3827 53.0559 22.5991 53.2247 22.8256 53.3771C22.927 53.4451 23.0271 53.5149 23.1309 53.5792C23.3912 53.7401 23.6527 53.8986 23.9135 54.0582C24.0249 54.1262 24.1375 54.193 24.247 54.264C24.3708 54.3442 24.4909 54.4292 24.6136 54.5105C24.658 54.5403 24.7024 54.5828 24.7512 54.59C24.9927 54.6265 25.1785 54.6477 25.3855 54.8814C25.6051 55.1291 26.0706 55.1686 26.424 55.3094C26.5266 55.3507 26.618 55.423 26.7081 55.4891C26.7387 55.5116 26.7418 55.5802 26.7712 55.5899C27.1647 55.7235 27.5582 55.8583 27.9567 55.976C28.1507 56.0331 28.4166 55.936 28.4772 56.2462C28.4835 56.2784 28.5967 56.3033 28.6624 56.3111C28.8951 56.3391 29.1635 56.2753 29.2611 56.5959C29.2742 56.6384 29.4482 56.6353 29.5476 56.6529C29.8229 56.7009 30.1613 56.5613 30.3252 56.9437C30.3528 57.0087 30.5986 56.9814 30.7419 57.0051C30.9646 57.0415 31.2493 56.9231 31.3531 57.2704C31.37 57.328 31.6215 57.3171 31.7635 57.3432C32.1101 57.4063 32.5173 57.2242 32.7845 57.6389C32.8439 57.7311 33.1473 57.6637 33.3344 57.6923C33.619 57.7354 33.9625 57.6049 34.1489 57.9703C34.1808 58.0329 34.3935 58.0049 34.5217 58.0256C35.0153 58.1051 35.5784 57.8629 35.9925 58.3352C36.0388 58.388 36.1902 58.3583 36.2928 58.3607C36.7332 58.371 37.1749 58.371 37.6147 58.391C37.9087 58.405 38.2309 58.3267 38.4511 58.6345C38.4961 58.6976 38.6713 58.6879 38.7864 58.6879C40.7414 58.6909 42.6958 58.6946 44.6507 58.6831C44.8015 58.6824 44.9485 58.561 45.1024 58.5088C45.2363 58.4633 45.3758 58.4123 45.5147 58.4062C46.0427 58.3832 46.5732 58.3904 47.1006 58.3595C47.3884 58.3425 47.6849 58.4147 47.9326 58.1051C48.0408 57.9703 48.4343 58.0638 48.694 58.0256C49.0312 57.9752 49.4103 58.1397 49.6912 57.7481C49.7806 57.6237 50.1697 57.7245 50.41 57.671C50.6302 57.6225 50.8304 57.4956 51.0462 57.4233C51.1788 57.379 51.3252 57.3736 51.4647 57.3468C51.7106 57.2995 52.0428 57.4616 52.1548 57.0718C52.1654 57.0354 52.3155 57.0384 52.4006 57.0208C52.699 56.9589 53.0763 57.124 53.2596 56.7136C53.2858 56.6548 53.5073 56.6815 53.6368 56.6614C53.8626 56.6268 54.1554 56.7343 54.2424 56.387C54.2511 56.3518 54.3981 56.3506 54.4807 56.3312C54.6709 56.2863 54.9493 56.4034 54.9862 56.0726C54.9881 56.0543 55.0287 56.0343 55.0556 56.0264C55.5123 55.8898 55.969 55.7544 56.4269 55.6197C56.4951 55.5996 56.619 55.5984 56.6265 55.5675C56.7354 55.1352 57.0776 55.3428 57.4148 55.2785L57.4098 55.2736ZM24.596 39.2075C24.5986 39.3884 24.5923 39.5706 24.6086 39.7509C24.6136 39.8037 24.6736 39.8814 24.7218 39.8923C24.7743 39.9045 24.8688 39.8699 24.8995 39.8261C25.0333 39.6325 24.8444 39.2767 24.586 39.2172C24.586 37.5514 24.5548 35.8843 24.6048 34.2203C24.6223 33.6356 24.8388 33.0571 24.9664 32.4761C24.972 32.4512 24.9933 32.4123 25.0121 32.4099C25.3643 32.3559 25.2279 32.0705 25.2917 31.8757C25.4168 31.4926 25.5607 31.1156 25.7002 30.7374C25.7077 30.7173 25.7534 30.7131 25.7678 30.6924C25.8447 30.5826 25.9154 30.469 25.9911 30.3579C26.075 30.2353 26.1582 30.1121 26.2464 29.9931C26.3834 29.8085 26.6255 29.6367 26.6449 29.4424C26.6993 28.8851 27.2398 28.6921 27.4894 28.2817C27.6683 27.9878 28.0762 27.8264 28.1588 27.4245C28.1707 27.3668 28.2821 27.3298 28.3452 27.2812C28.6142 27.0717 28.8814 26.8605 29.1516 26.6516C29.3399 26.5059 29.5752 26.3954 29.7122 26.2139C29.9117 25.9504 30.242 25.9571 30.4541 25.8035C30.8001 25.5522 31.0409 25.1691 31.5445 25.1752C31.5752 25.1752 31.6033 25.123 31.6371 25.1017C31.7766 25.0161 31.913 24.9238 32.0606 24.8546C32.1351 24.8194 32.299 24.8473 32.3084 24.8152C32.431 24.3951 32.8039 24.5742 33.0691 24.4965C33.1892 24.4612 33.2956 24.3805 33.4076 24.3204C33.4876 24.2773 33.5627 24.2093 33.6478 24.1935C34.0819 24.1134 34.5899 24.3028 34.9259 23.8554C34.9478 23.8262 35.0385 23.8438 35.0973 23.8438C36.7576 23.8438 38.4173 23.8432 40.0776 23.8481C40.1896 23.8481 40.3842 23.8669 40.3998 23.9179C40.5005 24.2384 40.7727 24.1182 40.981 24.1674C41.4909 24.2876 41.9982 24.4175 42.5056 24.5456C42.5287 24.5517 42.5619 24.579 42.5638 24.5984C42.5925 24.9038 42.8534 24.8115 43.0317 24.8577C43.113 24.8783 43.2619 24.885 43.2669 24.9147C43.317 25.225 43.5741 25.157 43.7743 25.2043C43.8562 25.2237 43.9282 25.2881 43.9995 25.3385C44.0802 25.3949 44.1465 25.4824 44.2347 25.5152C44.4174 25.5831 44.6501 25.4963 44.7296 25.812C44.7696 25.9699 45.0611 26.183 45.2275 26.1738C45.6336 26.1514 45.7943 26.481 46.0433 26.6413C46.3755 26.8544 46.5594 27.2727 46.866 27.5398C47.2864 27.9065 47.7618 28.204 47.942 28.7758C48.0008 28.9622 48.1741 29.1249 48.3236 29.2712C48.5832 29.525 48.9186 29.7205 48.9379 30.1351C48.9411 30.1971 48.9811 30.3088 49.0105 30.3112C49.3308 30.3324 49.2382 30.5832 49.2883 30.755C49.3133 30.8424 49.3433 30.9304 49.3865 31.0106C49.4634 31.1526 49.6142 31.285 49.6236 31.4282C49.6593 31.9522 49.9602 32.4026 50.1116 32.8822C50.226 33.2447 50.2892 33.6022 50.353 33.9689C50.3787 34.117 50.4006 34.2688 50.4513 34.4097C50.5082 34.5687 50.6577 34.7169 50.6602 34.8711C50.6771 35.9389 50.6677 37.0074 50.6615 38.0759C50.6608 38.1876 50.6683 38.3582 50.602 38.4013C50.2298 38.6447 50.3737 39.009 50.3474 39.3277C50.3405 39.4067 50.4419 39.4935 50.4932 39.5772C50.5557 39.505 50.6414 39.4413 50.6765 39.3581C50.7303 39.2306 50.7203 38.9896 50.7885 38.9701C51.095 38.8845 51.013 38.6496 51.0543 38.4602C51.0694 38.3916 51.0662 38.2708 51.0975 38.2623C51.5054 38.15 51.3565 37.8221 51.3984 37.5678C51.4166 37.4573 51.4172 37.2703 51.4735 37.2509C51.8576 37.1215 51.7012 36.8125 51.7437 36.5721C51.785 36.3378 51.8057 36.0986 51.8682 35.8703C51.9114 35.7119 52.0741 35.568 52.0753 35.4168C52.0884 33.7504 52.0816 32.0839 52.0772 30.4174C52.0772 30.3185 52.0953 30.1612 52.0421 30.1291C51.5761 29.848 51.8151 29.3933 51.7281 29.0217C51.7006 28.9033 51.6574 28.7856 51.6049 28.6751C51.5461 28.5518 51.4447 28.4444 51.4022 28.3181C51.2577 27.8889 51.1332 27.453 50.9924 27.0226C50.9793 26.9825 50.8967 26.9691 50.8585 26.9309C50.7978 26.8696 50.7303 26.8058 50.6959 26.7299C50.537 26.3754 50.39 26.0154 50.2329 25.6602C50.2185 25.6281 50.1516 25.6202 50.1297 25.5874C49.9514 25.3282 49.78 25.0653 49.6036 24.8049C49.4653 24.6015 49.3365 24.3902 49.1794 24.2014C49.0631 24.0612 48.9048 23.9531 48.7703 23.8262C48.5895 23.6556 48.4081 23.4856 48.236 23.3072C48.0784 23.1438 47.9508 22.9508 47.7793 22.8033C47.4753 22.5422 47.105 22.3425 46.8441 22.0493C46.582 21.7548 46.3668 21.4476 45.9282 21.4027C45.8807 21.3978 45.8312 21.3517 45.7956 21.3135C45.551 21.0524 45.3339 20.7562 44.9185 20.7361C44.8522 20.7331 44.7402 20.7052 44.7302 20.6675C44.6088 20.2262 43.972 20.52 43.8556 20.0835C43.3433 20.106 42.9666 19.7271 42.4699 19.6294C42.1277 19.562 41.7599 19.3866 41.372 19.3562C41.3295 19.3532 41.2613 19.3477 41.25 19.324C41.0398 18.8736 40.6175 19.103 40.2897 19.046C40.0182 18.9986 39.6185 19.0982 39.4877 18.9531C39.2519 18.6908 39.0047 18.7297 38.7433 18.7266C37.9206 18.7175 37.0973 18.7224 36.2747 18.7254C36.1583 18.7254 35.9725 18.7066 35.9375 18.7643C35.7116 19.137 35.3231 19.069 35.0297 19.0193C34.2327 18.8833 33.6021 19.4855 32.8345 19.4181C32.8007 19.4151 32.735 19.4527 32.7319 19.477C32.6925 19.7745 32.4398 19.681 32.2602 19.7338C31.8461 19.8546 31.3537 19.9002 31.0547 20.1545C30.8401 20.3373 30.6637 20.4046 30.421 20.449C30.3578 20.4605 30.3146 20.5558 30.2533 20.6026C30.0437 20.7622 29.8429 20.9389 29.6146 21.067C29.4507 21.1593 29.1954 21.0488 29.1354 21.3742C29.1078 21.5235 28.8438 21.733 28.6812 21.7384C28.0787 21.7585 27.8898 22.317 27.46 22.561C27.1241 22.7517 26.9646 23.2149 26.6505 23.4686C26.3365 23.723 26.0093 23.9252 25.9648 24.3623C25.9598 24.4109 25.8741 24.4491 25.8316 24.4971C25.6252 24.7278 25.308 24.8783 25.2729 25.2322C25.2661 25.3021 25.2686 25.398 25.2248 25.4356C24.8901 25.7179 24.5529 25.9929 24.5648 26.481C24.5654 26.5096 24.5085 26.5363 24.4872 26.5691C24.3996 26.7038 24.3058 26.8368 24.2345 26.9795C24.1982 27.0517 24.2238 27.2108 24.1919 27.2187C23.7484 27.331 23.9385 27.6952 23.8691 27.9526C23.8472 28.034 23.8622 28.1785 23.8216 28.193C23.403 28.3466 23.5776 28.7048 23.5138 28.9792C23.4894 29.0842 23.465 29.1911 23.4224 29.2894C23.3511 29.454 23.2204 29.6057 23.1953 29.7745C23.1497 30.0829 23.1684 30.3998 23.149 30.7125C23.1434 30.806 23.1103 30.9007 23.0734 30.9887C23.0027 31.1581 22.8575 31.322 22.8544 31.4902C22.8356 32.5295 22.8469 33.5701 22.8513 34.61C22.8513 34.7229 22.8294 34.8887 22.8944 34.9403C23.3061 35.2693 23.119 35.7204 23.1816 36.1186C23.201 36.2407 23.2091 36.3675 23.2529 36.4811C23.328 36.6759 23.4506 36.8556 23.5119 37.0536C23.657 37.5222 23.7771 37.9988 23.9104 38.4711C23.9167 38.4942 23.9436 38.5264 23.9636 38.5282C24.2745 38.5561 24.2232 38.8038 24.2282 38.9811C24.2363 39.2646 24.3721 39.2864 24.5954 39.2075H24.596ZM42.6044 50.5371C42.1077 50.5389 41.611 50.5371 41.1143 50.5474C41.0348 50.5492 40.9572 50.6087 40.8784 50.6403C40.717 50.7059 40.5562 50.8255 40.3948 50.8273C38.6907 50.8406 36.9866 50.8358 35.2818 50.834C35.1649 50.834 34.9884 50.8631 34.9396 50.803C34.5712 50.3459 34.0488 50.585 33.6015 50.4982C33.4457 50.4679 33.1873 50.4879 33.1504 50.4084C33.0166 50.1218 32.7763 50.1704 32.5592 50.1716C32.0194 50.1747 31.6352 49.6489 31.0641 49.7679C31.0428 49.7721 31.0115 49.706 30.9777 49.6835C30.8733 49.6155 30.7719 49.5366 30.6574 49.4911C30.3021 49.3496 29.9405 49.2215 29.5827 49.0855C29.562 49.0776 29.5589 49.0327 29.5382 49.0187C29.425 48.9435 29.308 48.8743 29.1942 48.7996C29.0691 48.717 28.9496 48.6254 28.8213 48.5476C28.5761 48.3995 28.3252 48.2611 28.08 48.1124C27.9661 48.0431 27.8617 47.9588 27.7503 47.8853C27.5182 47.7317 27.2811 47.5848 27.0521 47.4263C26.8144 47.2618 26.5711 47.1016 26.354 46.9127C26.0456 46.645 25.7584 46.3536 25.4637 46.0713C25.1685 45.7884 24.8726 45.5061 24.5817 45.2202C24.4052 45.0471 24.2301 44.8717 24.0674 44.6871C23.8854 44.4807 23.7027 44.2713 23.5482 44.0454C23.4568 43.9119 23.5332 43.72 23.2579 43.6435C23.0771 43.5932 22.9589 43.2945 22.8356 43.0935C22.6767 42.8337 22.6092 42.4652 22.3814 42.3146C22.0161 42.0736 22.003 41.6681 21.8309 41.3706C21.617 41.0003 21.2429 40.6026 21.3555 40.0872C21.0195 39.9263 21.0589 39.6179 21.0364 39.3326C21.0333 39.2962 21.0058 39.2367 20.9795 39.2312C20.6423 39.1608 20.7336 38.8924 20.7086 38.683C20.6823 38.4572 20.7643 38.1239 20.6392 38.0213C20.1637 37.6327 20.4252 37.1313 20.3307 36.6911C20.2982 36.5406 20.3307 36.3056 20.2413 36.2504C19.9679 36.081 20.0142 35.8424 20.0123 35.6123C20.0036 34.4868 19.9823 33.3612 20.0104 32.2363C20.0223 31.77 19.8265 31.2455 20.2957 30.8521C20.352 30.8048 20.3264 30.6615 20.3314 30.5619C20.3458 30.2493 20.352 29.9354 20.3702 29.6227C20.3758 29.5268 20.387 29.3641 20.4352 29.3489C20.7793 29.2415 20.646 28.961 20.7011 28.7461C20.8231 28.2659 20.9607 27.7893 21.0927 27.3109C21.0965 27.2976 21.1027 27.2751 21.1109 27.2733C21.5012 27.2047 21.3667 26.8933 21.4149 26.6644C21.438 26.5545 21.4549 26.4349 21.5125 26.3414C21.7014 26.0354 21.9072 25.7398 22.1081 25.4405C22.215 25.2808 22.347 25.1321 22.4284 24.9609C22.5885 24.6245 22.7193 24.2755 22.8675 23.9337C22.8813 23.9015 22.9338 23.8863 22.9651 23.8596C23.1459 23.7054 23.3405 23.5633 23.5013 23.3915C23.6383 23.2446 23.7421 23.0667 23.8503 22.8968C24.008 22.6503 24.1193 22.3637 24.3189 22.1567C24.5917 21.8744 24.9351 21.6571 25.236 21.3985C25.3868 21.2685 25.5125 21.1107 25.6458 20.9626C25.8041 20.7871 25.9486 20.5983 26.1181 20.4338C26.2514 20.3045 26.3996 20.1369 26.566 20.1029C26.9664 20.021 27.1773 19.7496 27.4275 19.4849C27.597 19.3058 27.836 19.1771 28.0637 19.0636C28.3909 18.9003 28.7362 18.7716 29.0728 18.6253C29.0953 18.6155 29.1022 18.5737 29.1247 18.5603C29.4388 18.3776 29.7416 18.1699 30.0725 18.0224C30.436 17.8609 30.8263 17.7559 31.2042 17.6242C31.2274 17.6163 31.2386 17.5792 31.2618 17.5653C31.3906 17.487 31.5201 17.3479 31.6515 17.3455C32.2352 17.3358 32.6812 16.8009 33.3012 16.9539C33.325 16.96 33.3606 16.8993 33.3969 16.8811C33.5477 16.8034 33.6953 16.6856 33.8549 16.665C34.1733 16.6237 34.4998 16.6419 34.8226 16.6231C34.9328 16.6164 35.0447 16.583 35.1486 16.5441C35.3244 16.478 35.4939 16.3359 35.6678 16.3341C37.1223 16.3171 38.5768 16.3232 40.0314 16.3286C40.1577 16.3286 40.2878 16.3644 40.4086 16.4057C40.5981 16.4707 40.7746 16.5921 40.9672 16.6206C41.27 16.665 41.5828 16.6449 41.89 16.6674C41.9976 16.6753 42.104 16.722 42.2059 16.7627C42.3761 16.8301 42.5381 16.923 42.7133 16.9691C42.7721 16.9843 42.8622 16.8896 42.9379 16.8453C42.8797 16.7833 42.834 16.6977 42.7615 16.6625C42.4712 16.5229 42.0602 16.4731 41.905 16.2515C41.6967 15.9528 41.4527 16.0008 41.1956 15.9565C41.0967 15.9395 40.9278 15.9273 40.9141 15.8794C40.8259 15.5728 40.5681 15.6414 40.3535 15.6086C40.2828 15.5977 40.1577 15.5898 40.1515 15.5607C40.067 15.18 39.7467 15.3269 39.5146 15.2838C39.3857 15.2601 39.1662 15.2862 39.1393 15.2255C38.9528 14.8079 38.5725 14.9936 38.2753 14.9341C38.1327 14.9056 37.9137 14.9584 37.8499 14.8807C37.4908 14.446 36.9953 14.6628 36.5649 14.5832C36.4442 14.5608 36.3253 14.5219 36.2108 14.4782C36.0588 14.4199 35.9124 14.293 35.7623 14.2918C34.0432 14.2754 32.3246 14.276 30.6055 14.2791C30.4841 14.2791 30.3584 14.3276 30.2414 14.3708C30.0775 14.4315 29.9242 14.5523 29.7578 14.5699C29.3793 14.6099 28.9952 14.5966 28.6136 14.6172C28.4854 14.6239 28.2833 14.63 28.2445 14.7022C28.0819 15.0039 27.801 14.8953 27.5607 14.9481C27.0684 15.0568 26.5817 15.1921 26.0943 15.3215C26.0606 15.3306 26.0437 15.3858 26.0105 15.4083C25.9067 15.4793 25.8072 15.5692 25.6908 15.608C25.2523 15.7531 24.8025 15.8684 24.3677 16.0233C24.232 16.0712 24.1294 16.2916 24.013 16.2904C23.6045 16.2873 23.4412 16.6437 23.139 16.7894C22.8369 16.9351 22.5691 17.2769 22.2788 17.2848C21.8716 17.2951 21.6808 17.5896 21.4731 17.7553C21.1559 18.0085 20.9288 18.349 20.4709 18.3921C20.4396 18.3952 20.4102 18.4419 20.3839 18.4717C20.1187 18.7661 19.8703 19.0763 19.5844 19.3501C19.4155 19.5122 19.1746 19.6015 18.992 19.7526C18.8381 19.8801 18.7273 20.055 18.586 20.1982C18.2832 20.5048 17.966 20.7974 17.6695 21.1095C17.4987 21.2898 17.3448 21.4883 17.2059 21.6929C17.0407 21.9363 16.9413 22.2344 16.7373 22.4366C16.4677 22.7037 16.1199 22.8974 16.1117 23.332C16.1111 23.3806 16.0817 23.4474 16.0423 23.4729C15.6763 23.7169 15.6037 24.1358 15.4267 24.4825C15.2665 24.7957 14.9631 25.0532 14.9788 25.4544C14.9813 25.5249 14.7354 25.5995 14.7335 25.6754C14.7229 26.1708 14.193 26.5108 14.3138 27.0365C13.9053 27.2769 14.0429 27.697 13.9597 28.0443C13.9497 28.085 13.9397 28.1469 13.9115 28.1584C13.5693 28.3029 13.68 28.6016 13.6544 28.8523C13.6413 28.9798 13.685 29.1747 13.6162 29.2245C13.1245 29.5754 13.366 30.0787 13.3059 30.5133C13.259 30.8509 13.3879 31.2904 13.2102 31.5132C12.8924 31.9121 12.9856 32.314 12.9756 32.7171C12.955 33.5852 12.9737 34.4546 12.9825 35.3239C12.9838 35.449 12.9775 35.6427 13.0501 35.6858C13.3597 35.8691 13.2753 36.1502 13.289 36.4058C13.3072 36.747 13.3047 37.0894 13.3197 37.4306C13.3247 37.5417 13.3253 37.725 13.3848 37.7505C13.7564 37.9102 13.5981 38.2283 13.6575 38.4827C13.7839 39.0199 13.9259 39.5536 14.0629 40.0884C14.0698 40.1145 14.0886 40.1528 14.1086 40.1576C14.4076 40.2268 14.34 40.4697 14.3682 40.6664C14.3801 40.7495 14.3663 40.8849 14.4114 40.9068C14.9312 41.1587 14.6747 41.761 15.0226 42.1452C15.239 42.3844 15.4154 42.7572 15.6363 43.0595C15.824 43.3169 15.9672 43.6083 16.1042 43.8961C16.1855 44.0673 16.0817 44.3053 16.412 44.3733C16.5678 44.4054 16.7774 44.6531 16.7867 44.8128C16.8199 45.3835 17.3623 45.6039 17.6125 46.0227C17.8102 46.3536 18.2469 46.5424 18.539 46.8308C18.8281 47.1155 19.0439 47.4707 19.3385 47.7493C19.637 48.0316 20.0398 48.218 20.3101 48.5191C20.5841 48.8251 20.8137 49.1371 21.2666 49.1802C21.301 49.1833 21.3379 49.2227 21.363 49.2537C21.5926 49.5305 21.8071 49.8244 22.2207 49.8584C22.2751 49.8626 22.3395 49.8863 22.3771 49.9221C22.6686 50.1971 22.9195 50.5292 23.388 50.5322C23.4293 50.5322 23.4675 50.5978 23.5119 50.6263C23.6245 50.7004 23.7327 50.8151 23.8553 50.8346C24.2345 50.8934 24.4515 51.3275 24.8863 51.2425C24.8951 51.2407 24.9082 51.2941 24.9295 51.3081C25.0433 51.3822 25.1522 51.4702 25.2779 51.5182C25.383 51.5582 25.5889 51.5169 25.6114 51.5685C25.7847 51.965 26.1532 51.8247 26.4466 51.8854C26.5279 51.9024 26.6705 51.9146 26.6787 51.951C26.7537 52.2861 27.0321 52.1823 27.2436 52.2084C27.4763 52.2369 27.8135 52.1562 27.9267 52.2782C28.3058 52.6874 28.7825 52.4974 29.2111 52.5793C29.3193 52.6 29.4244 52.6382 29.527 52.6777C29.6909 52.7402 29.851 52.8683 30.0131 52.8695C32.0406 52.8841 34.0682 52.8811 36.0951 52.8799C36.2115 52.8799 36.3923 52.8963 36.4336 52.8355C36.7126 52.4258 37.1399 52.6121 37.5046 52.5545C37.6597 52.5302 37.9175 52.5545 37.9538 52.478C38.0976 52.175 38.3629 52.2697 38.5912 52.2187C39.1543 52.0931 39.7536 52.0269 40.2559 51.7792C40.5068 51.6553 40.8077 51.622 40.9904 51.4799C41.245 51.282 41.4734 51.1515 41.7912 51.1539C41.8105 51.1539 41.8468 51.1187 41.8475 51.0986C41.86 50.7836 42.1283 50.8388 42.3016 50.8449C42.57 50.854 42.5706 50.6937 42.5932 50.5237C42.7646 50.5055 42.9372 50.4934 43.1068 50.4654C43.1537 50.4582 43.2156 50.412 43.2288 50.3713C43.2413 50.3313 43.205 50.2354 43.1812 50.2323C43.0123 50.2117 42.8365 50.1856 42.6732 50.2153C42.6313 50.2232 42.6276 50.4248 42.6063 50.5377L42.6044 50.5371Z" fill="white"/>
</g>
<defs>
<clipPath id="clip0_1_971">
<rect width="341" height="66" fill="white" transform="translate(4.5 4)"/>
</clipPath>
</defs>
</svg>
