<svg width="284" height="45" viewBox="0 0 284 45" fill="none" xmlns="http://www.w3.org/2000/svg">
<rect y="0.126221" width="44" height="44" rx="8" fill="white" fill-opacity="0.1"/>
<path d="M27.3831 23.5586L28.0101 19.5754H24.1483V16.9863C24.1483 15.8972 24.6874 14.8329 26.4114 14.8329H28.1919V11.441C27.155 11.2756 26.1073 11.1862 25.0573 11.1733C21.8788 11.1733 19.8038 13.084 19.8038 16.5382V19.5754H16.2805V23.5586H19.8038V33.1929H24.1483V23.5586H27.3831Z" fill="white"/>
<rect x="60" y="0.126221" width="44" height="44" rx="8" fill="white" fill-opacity="0.1"/>
<path d="M78.3384 22.1826C78.3384 20.1559 79.9805 18.5124 82.0067 18.5124C84.0329 18.5124 85.6759 20.1559 85.6759 22.1826C85.6759 24.2094 84.0329 25.8528 82.0067 25.8528C79.9805 25.8528 78.3384 24.2094 78.3384 22.1826ZM76.355 22.1826C76.355 25.305 78.8853 27.836 82.0067 27.836C85.1282 27.836 87.6585 25.305 87.6585 22.1826C87.6585 19.0603 85.1282 16.5292 82.0067 16.5292C78.8853 16.5292 76.355 19.0603 76.355 22.1826ZM86.5614 16.3051C86.5613 16.5664 86.6387 16.8219 86.7837 17.0392C86.9288 17.2565 87.135 17.4259 87.3763 17.526C87.6176 17.6261 87.8832 17.6524 88.1394 17.6015C88.3956 17.5506 88.631 17.4249 88.8158 17.2402C89.0006 17.0555 89.1265 16.8201 89.1775 16.5639C89.2286 16.3076 89.2025 16.042 89.1027 15.8005C89.0028 15.5591 88.8336 15.3526 88.6165 15.2074C88.3993 15.0621 88.144 14.9845 87.8827 14.9844H87.8822C87.5321 14.9846 87.1963 15.1238 86.9486 15.3714C86.701 15.619 86.5617 15.9548 86.5614 16.3051ZM77.5601 31.1443C76.487 31.0954 75.9037 30.9166 75.5161 30.7656C75.0022 30.5655 74.6356 30.3271 74.2501 29.9421C73.8646 29.557 73.6259 29.1906 73.4268 28.6765C73.2757 28.289 73.0969 27.7054 73.0481 26.632C72.9948 25.4715 72.9841 25.1229 72.9841 22.1827C72.9841 19.2426 72.9957 18.8949 73.0481 17.7334C73.097 16.66 73.2771 16.0776 73.4268 15.6889C73.6268 15.1749 73.8651 14.8081 74.2501 14.4225C74.635 14.0369 75.0013 13.7982 75.5161 13.599C75.9035 13.4478 76.487 13.269 77.5601 13.2202C78.7202 13.1669 79.0688 13.1562 82.0067 13.1562C84.9447 13.1562 85.2936 13.1677 86.4547 13.2202C87.5278 13.2691 88.1101 13.4492 88.4987 13.599C89.0126 13.7982 89.3792 14.0374 89.7647 14.4225C90.1502 14.8076 90.3879 15.1749 90.588 15.6889C90.7391 16.0764 90.9178 16.66 90.9666 17.7334C91.02 18.8949 91.0306 19.2426 91.0306 22.1827C91.0306 25.1229 91.02 25.4705 90.9666 26.632C90.9178 27.7054 90.7381 28.2888 90.588 28.6765C90.3879 29.1906 90.1497 29.5573 89.7647 29.9421C89.3797 30.3268 89.0126 30.5655 88.4987 30.7656C88.1112 30.9167 87.5278 31.0955 86.4547 31.1443C85.2945 31.1977 84.946 31.2084 82.0067 31.2084C79.0674 31.2084 78.7199 31.1977 77.5601 31.1443ZM77.4689 11.2395C76.2972 11.2929 75.4965 11.4787 74.7973 11.7509C74.0732 12.032 73.4601 12.409 72.8476 13.0208C72.235 13.6326 71.859 14.2468 71.578 14.9711C71.3059 15.671 71.1201 16.4715 71.0668 17.6435C71.0125 18.8174 71.0001 19.1927 71.0001 22.1826C71.0001 25.1725 71.0125 25.5478 71.0668 26.7217C71.1201 27.8939 71.3059 28.6943 71.578 29.3941C71.859 30.118 72.2351 30.7329 72.8476 31.3444C73.4601 31.956 74.0732 32.3325 74.7973 32.6144C75.4979 32.8865 76.2972 33.0724 77.4689 33.1257C78.6431 33.1791 79.0177 33.1924 82.0067 33.1924C84.9958 33.1924 85.371 33.18 86.5445 33.1257C87.7163 33.0724 88.5165 32.8865 89.2161 32.6144C89.9398 32.3325 90.5533 31.9562 91.1659 31.3444C91.7785 30.7326 92.1537 30.118 92.4354 29.3941C92.7075 28.6943 92.8942 27.8938 92.9467 26.7217C93 25.547 93.0124 25.1725 93.0124 22.1826C93.0124 19.1927 93 18.8174 92.9467 17.6435C92.8933 16.4714 92.7075 15.6706 92.4354 14.9711C92.1537 14.2472 91.7775 13.6336 91.1659 13.0208C90.5543 12.4081 89.9398 12.032 89.217 11.7509C88.5165 11.4787 87.7162 11.292 86.5454 11.2395C85.3718 11.1862 84.9966 11.1729 82.0076 11.1729C79.0186 11.1729 78.6431 11.1853 77.4689 11.2395Z" fill="white"/>
<rect x="120" y="0.126221" width="44" height="44" rx="8" fill="white" fill-opacity="0.1"/>
<path d="M136.939 31.042V19.1563H132.992V31.042H136.939H136.939ZM134.966 17.5338C136.342 17.5338 137.199 16.6211 137.199 15.4805C137.173 14.314 136.342 13.4268 134.992 13.4268C133.641 13.4268 132.759 14.314 132.759 15.4804C132.759 16.621 133.615 17.5337 134.94 17.5337H134.966L134.966 17.5338ZM139.123 31.042H143.07V24.4052C143.07 24.0505 143.096 23.6948 143.2 23.4414C143.485 22.7313 144.135 21.9964 145.226 21.9964C146.653 21.9964 147.225 23.0862 147.225 24.6842V31.042H151.172V24.2271C151.172 20.5765 149.225 18.8777 146.628 18.8777C144.499 18.8777 143.564 20.0687 143.044 20.8799H143.071V19.1567H139.124C139.175 20.2718 139.123 31.0424 139.123 31.0424L139.123 31.042Z" fill="white"/>
<rect x="180" y="0.126221" width="44" height="44" rx="8" fill="white" fill-opacity="0.1"/>
<path d="M213 22.3278C213.003 22.552 212.975 22.7759 212.916 22.9924C212.856 23.2089 212.766 23.4164 212.648 23.6079C212.53 23.7994 212.386 23.9737 212.219 24.1256C212.052 24.2774 211.865 24.4051 211.662 24.5049C211.667 24.5647 211.67 24.6249 211.672 24.685C211.677 24.805 211.677 24.9252 211.672 25.0451C211.67 25.1053 211.667 25.1655 211.662 25.2252C211.662 28.892 207.352 31.8713 202.033 31.8713C196.715 31.8713 192.405 28.892 192.405 25.2252C192.4 25.1655 192.397 25.1053 192.395 25.0451C192.39 24.9252 192.39 24.805 192.395 24.685C192.397 24.6249 192.4 24.5647 192.405 24.5049C192.087 24.3602 191.805 24.1489 191.578 23.8854C191.351 23.622 191.184 23.3128 191.09 22.9793C190.995 22.6456 190.975 22.2955 191.031 21.9534C191.086 21.6112 191.216 21.2851 191.412 20.9977C191.607 20.7104 191.863 20.4685 192.162 20.289C192.461 20.1095 192.796 19.9967 193.143 19.9582C193.491 19.9196 193.842 19.9564 194.174 20.0659C194.506 20.1754 194.809 20.3551 195.064 20.5926C195.537 20.275 196.032 19.9918 196.546 19.745C197.06 19.4987 197.591 19.2891 198.136 19.1189C198.68 18.9486 199.237 18.8181 199.801 18.7276C200.364 18.6372 200.934 18.5877 201.505 18.5791L202.727 12.8988C202.741 12.8329 202.768 12.7707 202.806 12.715C202.844 12.6598 202.893 12.6123 202.95 12.5759C203.007 12.5394 203.07 12.5145 203.137 12.5022C203.204 12.4903 203.272 12.4916 203.338 12.5059L207.385 13.308C207.793 12.6127 208.65 12.3148 209.407 12.6045C210.164 12.8943 210.596 13.6862 210.427 14.4727C210.258 15.2593 209.537 15.8077 208.727 15.7663C207.917 15.725 207.257 15.1062 207.17 14.3066L203.635 13.5699L202.562 18.6773C203.126 18.6892 203.689 18.7416 204.245 18.8336C205.36 19.0178 206.442 19.3604 207.458 19.851C207.965 20.0957 208.454 20.3764 208.92 20.6908C209.256 20.3715 209.678 20.1553 210.134 20.0683C210.591 19.981 211.064 20.0267 211.495 20.1997C211.926 20.3726 212.298 20.6656 212.565 21.0431C212.832 21.4207 212.983 21.8669 213 22.3278ZM196.61 24.5913C196.693 24.7898 196.815 24.9703 196.968 25.1221C197.121 25.2743 197.303 25.3946 197.504 25.4773C197.704 25.5595 197.919 25.6017 198.136 25.6017C198.804 25.6017 199.406 25.2027 199.662 24.5913C199.917 23.9795 199.776 23.2756 199.303 22.8074C198.831 22.3392 198.121 22.1989 197.504 22.4522C196.887 22.7059 196.484 23.3026 196.484 23.9647C196.484 24.1796 196.527 24.3924 196.61 24.5913ZM206.069 28.5209C206.154 28.439 206.202 28.3273 206.204 28.2102C206.205 28.0928 206.159 27.9798 206.077 27.8959C205.994 27.812 205.882 27.7642 205.764 27.7625C205.645 27.7609 205.531 27.8063 205.436 27.8771C205.187 28.0537 204.924 28.2091 204.65 28.3416C204.375 28.4742 204.089 28.5836 203.796 28.6686C203.503 28.7533 203.202 28.8135 202.899 28.8483C202.595 28.883 202.289 28.892 201.984 28.8757C201.679 28.8892 201.374 28.8769 201.071 28.8393C200.768 28.802 200.469 28.739 200.178 28.651C199.885 28.5634 199.602 28.4513 199.329 28.3162C199.056 28.1812 198.795 28.0232 198.549 27.8444C198.463 27.7748 198.355 27.7392 198.244 27.7445C198.133 27.7498 198.029 27.7961 197.95 27.8734C197.872 27.9512 197.826 28.0547 197.82 28.1644C197.815 28.2741 197.851 28.3817 197.921 28.4664C198.211 28.6833 198.52 28.8749 198.843 29.0394C199.166 29.2039 199.504 29.3402 199.851 29.4474C200.197 29.5546 200.553 29.632 200.913 29.679C201.274 29.7257 201.638 29.7416 202 29.7269C202.363 29.7416 202.727 29.7257 203.088 29.679C203.81 29.5849 204.51 29.3685 205.158 29.0394C205.481 28.8749 205.79 28.6833 206.08 28.4664L206.069 28.5209ZM205.766 25.7327C205.99 25.7351 206.212 25.6922 206.419 25.607C206.626 25.5215 206.813 25.3955 206.969 25.2363C207.125 25.0771 207.246 24.888 207.326 24.6805C207.406 24.4733 207.443 24.252 207.434 24.0302C207.434 23.3681 207.032 22.7714 206.415 22.5177C205.797 22.2643 205.087 22.4047 204.615 22.8729C204.143 23.3411 204.001 24.045 204.256 24.6568C204.512 25.2682 205.114 25.6672 205.783 25.6672L205.766 25.7327Z" fill="white"/>
<rect x="240" y="0.126221" width="44" height="44" rx="8" fill="white" fill-opacity="0.1"/>
<path d="M270.022 14.9145C272.615 18.7534 273.895 23.0836 273.417 28.0687C273.415 28.0898 273.404 28.1091 273.387 28.1219C271.423 29.5737 269.521 30.4549 267.645 31.0392C267.631 31.0437 267.615 31.0434 267.601 31.0385C267.586 31.0336 267.574 31.0242 267.565 31.0117C267.131 30.4046 266.738 29.7645 266.393 29.0923C266.373 29.0527 266.391 29.005 266.432 28.9894C267.057 28.7521 267.652 28.4678 268.224 28.1311C268.269 28.1045 268.272 28.0395 268.23 28.0083C268.109 27.9175 267.988 27.8222 267.873 27.7268C267.852 27.7092 267.823 27.7057 267.798 27.7176C264.085 29.4443 260.018 29.4443 256.261 27.7176C256.237 27.7066 256.208 27.7103 256.187 27.7277C256.072 27.823 255.952 27.9175 255.831 28.0083C255.79 28.0395 255.793 28.1045 255.839 28.1311C256.41 28.4614 257.005 28.7521 257.629 28.9906C257.67 29.0062 257.689 29.0527 257.669 29.0923C257.332 29.7653 256.938 30.4054 256.497 31.0126C256.477 31.0372 256.446 31.0484 256.416 31.0392C254.549 30.4549 252.647 29.5737 250.684 28.1219C250.667 28.1091 250.656 28.0889 250.654 28.0678C250.254 23.7558 251.069 19.3898 254.045 14.9137C254.052 14.9018 254.063 14.8926 254.076 14.8871C255.54 14.2103 257.109 13.7123 258.749 13.428C258.778 13.4234 258.808 13.4372 258.824 13.4638C259.026 13.825 259.258 14.2883 259.415 14.6669C261.143 14.401 262.898 14.401 264.663 14.6669C264.819 14.2964 265.043 13.825 265.245 13.4638C265.252 13.4506 265.263 13.4401 265.277 13.4336C265.29 13.4272 265.305 13.4252 265.32 13.428C266.96 13.7132 268.529 14.2111 269.992 14.8871C270.005 14.8926 270.016 14.9018 270.022 14.9145ZM260.293 23.1131C260.311 21.8384 259.389 20.7836 258.23 20.7836C257.081 20.7836 256.167 21.8291 256.167 23.1131C256.167 24.3968 257.099 25.4424 258.23 25.4424C259.379 25.4424 260.293 24.3968 260.293 23.1131ZM267.921 23.1131C267.939 21.8384 267.016 20.7836 265.858 20.7836C264.709 20.7836 263.795 21.8291 263.795 23.1131C263.795 24.3968 264.727 25.4424 265.858 25.4424C267.016 25.4424 267.921 24.3968 267.921 23.1131Z" fill="white"/>
</svg>
